<?xml version="1.0" encoding="UTF-8" standalone="no"?>
<!-- Created with Inkscape (http://www.inkscape.org/) -->

<svg
   width="420mm"
   height="297mm"
   viewBox="0 0 420 297"
   version="1.1"
   id="svg1"
   inkscape:version="1.3.2 (091e20e, 2023-11-25)"
   sodipodi:docname="plate3.svg"
   xmlns:inkscape="http://www.inkscape.org/namespaces/inkscape"
   xmlns:sodipodi="http://sodipodi.sourceforge.net/DTD/sodipodi-0.dtd"
   xmlns="http://www.w3.org/2000/svg"
   xmlns:svg="http://www.w3.org/2000/svg">
  <sodipodi:namedview
     id="namedview1"
     pagecolor="#ffffff"
     bordercolor="#666666"
     borderopacity="1.0"
     inkscape:showpageshadow="2"
     inkscape:pageopacity="0.0"
     inkscape:pagecheckerboard="0"
     inkscape:deskcolor="#d1d1d1"
     inkscape:document-units="mm"
     inkscape:zoom="0.43580206"
     inkscape:cx="853.59854"
     inkscape:cy="661.99779"
     inkscape:window-width="1664"
     inkscape:window-height="924"
     inkscape:window-x="246"
     inkscape:window-y="149"
     inkscape:window-maximized="0"
     inkscape:current-layer="layer1" />
  <defs
     id="defs1" />
  <g
     inkscape:label="Layer 1"
     inkscape:groupmode="layer"
     id="layer1">
    <path
       id="rect1"
       style="fill:none;fill-rule:evenodd;stroke:#000000;stroke-width:0.0999456;stroke-linejoin:bevel"
       d="m 38.047933,58.125696 c -4.43075,-2e-6 -7.99796,3.565405 -7.99796,7.993828 V 174.03232 c 0,4.42842 3.56721,7.99331 7.99796,7.99331 H 377.65253 c 4.43075,0 7.99745,-3.56489 7.99745,-7.99331 V 66.119524 c 0,-4.428423 -3.5667,-7.993853 -7.99745,-7.993828 l -26.9544,1.55e-4 c -1.95647,0.05974 -3.04222,1.809797 -3.04222,3.979964 v 16.940051 c 0,2.208171 -1.39589,3.985804 -3.13004,3.985804 h -15.65124 c -1.73415,0 -3.13056,-1.777633 -3.13056,-3.985804 V 62.105815 c 0,-2.170167 -1.02739,-3.931892 -3.04194,-3.979964 z"
       sodipodi:nodetypes="sssssssscsssssscs" />
  </g>
</svg>
