M48
; DRILL file {KiCad 8.0.5} date 2024-10-06T00:46:45+0900
; FORMAT={-:-/ absolute / metric / decimal}
; #@! TF.CreationDate,2024-10-06T00:46:45+09:00
; #@! TF.GenerationSoftware,Kicad,Pcbnew,8.0.5
; #@! TF.FileFunction,NonPlated,1,2,NPTH
FMAT,2
METRIC
; #@! TA.AperFunction,NonPlated,NPTH,ComponentDrill
T1C1.050
; #@! TA.AperFunction,NonPlated,NPTH,ComponentDrill
T2C1.200
; #@! TA.AperFunction,NonPlated,NPTH,ComponentDrill
T3C1.600
%
G90
G05
T1
X33.2Y-110.25
X33.2Y-129.3
X33.2Y-148.35
X37.203Y-91.2
X52.25Y-110.25
X52.25Y-129.3
X52.25Y-148.35
X71.3Y-107.869
X71.3Y-126.919
X71.3Y-145.969
X85.85Y-167.4
X90.35Y-103.9
X90.35Y-122.95
X90.35Y-142.0
X104.9Y-167.4
X109.4Y-107.869
X109.4Y-126.919
X109.4Y-145.969
X126.192Y-168.468
X128.45Y-107.869
X128.45Y-126.919
X128.45Y-145.969
X151.435Y-176.939
X255.93Y-182.739
X277.36Y-107.869
X277.36Y-126.919
X277.36Y-145.969
X279.871Y-170.88
X296.41Y-107.869
X296.41Y-126.919
X296.41Y-145.969
X300.91Y-167.4
X315.46Y-103.9
X315.46Y-122.95
X315.46Y-142.0
X319.96Y-167.4
X334.51Y-107.869
X334.51Y-126.919
X334.51Y-145.969
X353.56Y-110.25
X353.56Y-129.3
X353.56Y-148.35
X368.607Y-91.2
X372.61Y-110.25
X372.61Y-129.3
X372.61Y-148.35
T2
X44.8Y-105.79
X44.8Y-112.31
X44.8Y-124.84
X44.8Y-131.36
X44.8Y-143.89
X44.8Y-150.41
X48.802Y-86.74
X48.802Y-93.26
X63.85Y-105.79
X63.85Y-112.31
X63.85Y-124.84
X63.85Y-131.36
X63.85Y-143.89
X63.85Y-150.41
X82.9Y-103.409
X82.9Y-109.929
X82.9Y-122.459
X82.9Y-128.979
X82.9Y-141.509
X82.9Y-148.029
X97.45Y-162.94
X97.45Y-169.46
X101.95Y-99.44
X101.95Y-105.96
X101.95Y-118.49
X101.95Y-125.01
X101.95Y-137.54
X101.95Y-144.06
X116.5Y-162.94
X116.5Y-169.46
X121.0Y-103.409
X121.0Y-109.929
X121.0Y-122.459
X121.0Y-128.979
X121.0Y-141.509
X121.0Y-148.029
X137.11Y-172.895
X138.466Y-166.517
X140.05Y-103.409
X140.05Y-109.929
X140.05Y-122.459
X140.05Y-128.979
X140.05Y-141.509
X140.05Y-148.029
X160.45Y-184.523
X163.71Y-178.877
X263.745Y-173.077
X267.005Y-178.723
X288.96Y-103.409
X288.96Y-109.929
X288.96Y-122.459
X288.96Y-128.979
X288.96Y-141.509
X288.96Y-148.029
X290.29Y-164.105
X291.646Y-170.483
X308.01Y-103.409
X308.01Y-109.929
X308.01Y-122.459
X308.01Y-128.979
X308.01Y-141.509
X308.01Y-148.029
X312.51Y-162.94
X312.51Y-169.46
X327.06Y-99.44
X327.06Y-105.96
X327.06Y-118.49
X327.06Y-125.01
X327.06Y-137.54
X327.06Y-144.06
X331.56Y-162.94
X331.56Y-169.46
X346.11Y-103.409
X346.11Y-109.929
X346.11Y-122.459
X346.11Y-128.979
X346.11Y-141.509
X346.11Y-148.029
X365.16Y-105.79
X365.16Y-112.31
X365.16Y-124.84
X365.16Y-131.36
X365.16Y-143.89
X365.16Y-150.41
X380.207Y-86.74
X380.207Y-93.26
X384.21Y-105.79
X384.21Y-112.31
X384.21Y-124.84
X384.21Y-131.36
X384.21Y-143.89
X384.21Y-150.41
T3
X35.5Y-158.5
M30
