%TF.GenerationSoftware,KiCad,Pcbnew,8.0.5*%
%TF.CreationDate,2024-10-06T00:46:39+09:00*%
%TF.ProjectId,monolith,6d6f6e6f-6c69-4746-982e-6b696361645f,rev?*%
%TF.SameCoordinates,Original*%
%TF.FileFunction,Legend,Top*%
%TF.FilePolarity,Positive*%
%FSLAX46Y46*%
G04 Gerber Fmt 4.6, Leading zero omitted, Abs format (unit mm)*
G04 Created by KiCad (PCBNEW 8.0.5) date 2024-10-06 00:46:39*
%MOMM*%
%LPD*%
G01*
G04 APERTURE LIST*
G04 Aperture macros list*
%AMRoundRect*
0 Rectangle with rounded corners*
0 $1 Rounding radius*
0 $2 $3 $4 $5 $6 $7 $8 $9 X,Y pos of 4 corners*
0 Add a 4 corners polygon primitive as box body*
4,1,4,$2,$3,$4,$5,$6,$7,$8,$9,$2,$3,0*
0 Add four circle primitives for the rounded corners*
1,1,$1+$1,$2,$3*
1,1,$1+$1,$4,$5*
1,1,$1+$1,$6,$7*
1,1,$1+$1,$8,$9*
0 Add four rect primitives between the rounded corners*
20,1,$1+$1,$2,$3,$4,$5,0*
20,1,$1+$1,$4,$5,$6,$7,0*
20,1,$1+$1,$6,$7,$8,$9,0*
20,1,$1+$1,$8,$9,$2,$3,0*%
%AMRotRect*
0 Rectangle, with rotation*
0 The origin of the aperture is its center*
0 $1 length*
0 $2 width*
0 $3 Rotation angle, in degrees counterclockwise*
0 Add horizontal line*
21,1,$1,$2,0,0,$3*%
%AMFreePoly0*
4,1,83,-1.265370,1.979643,-0.986535,1.918986,-0.719170,1.819264,-0.468718,1.682507,-0.240280,1.511499,-0.038501,1.309721,0.132507,1.081282,0.269264,0.830830,0.368986,0.563465,0.429643,0.284630,0.450000,0.000000,0.429643,-0.284630,0.368986,-0.563465,0.269264,-0.830830,0.132507,-1.081282,-0.038501,-1.309721,-0.240279,-1.511499,-0.468718,-1.682506,-0.719170,-1.819264,-0.986535,-1.918986,
-1.265370,-1.979643,-1.550000,-2.000000,-1.834629,-1.979643,-2.113466,-1.918986,-2.380830,-1.819264,-2.631282,-1.682507,-2.859721,-1.511499,-3.061499,-1.309721,-3.232507,-1.081282,-3.369264,-0.830830,-3.468986,-0.563465,-3.529643,-0.284630,-3.550000,0.000000,-2.654713,0.000000,-2.635903,-0.202990,-2.580114,-0.399068,-2.489246,-0.581556,-2.366393,-0.744240,-2.215738,-0.881580,-2.042413,-0.988899,
-1.852319,-1.062541,-1.651930,-1.100000,-1.448070,-1.100000,-1.247681,-1.062541,-1.057587,-0.988899,-0.884262,-0.881580,-0.733607,-0.744240,-0.610754,-0.581556,-0.519886,-0.399068,-0.464097,-0.202990,-0.447134,-0.019933,-0.450000,0.000000,-0.447134,0.019933,-0.464097,0.202990,-0.519886,0.399068,-0.610754,0.581556,-0.733607,0.744240,-0.884262,0.881580,-1.057587,0.988899,-1.247681,1.062541,
-1.448070,1.100000,-1.651930,1.100001,-1.852319,1.062541,-2.042413,0.988899,-2.215738,0.881580,-2.366393,0.744240,-2.489246,0.581556,-2.580114,0.399068,-2.635903,0.202990,-2.654713,0.000000,-3.550000,0.000000,-3.529643,0.284630,-3.468986,0.563465,-3.369264,0.830830,-3.232507,1.081282,-3.061499,1.309721,-2.859721,1.511499,-2.631282,1.682507,-2.380830,1.819264,-2.113465,1.918986,
-1.834630,1.979643,-1.550000,2.000000,-1.265370,1.979643,-1.265370,1.979643,$1*%
G04 Aperture macros list end*
%ADD10C,0.300000*%
%ADD11C,0.150000*%
%ADD12C,0.120000*%
%ADD13RoundRect,0.225000X-0.250000X0.225000X-0.250000X-0.225000X0.250000X-0.225000X0.250000X0.225000X0*%
%ADD14RoundRect,0.225000X0.225000X0.250000X-0.225000X0.250000X-0.225000X-0.250000X0.225000X-0.250000X0*%
%ADD15RotRect,1.200000X1.200000X12.000000*%
%ADD16C,1.050000*%
%ADD17C,1.200000*%
%ADD18RotRect,0.700000X3.400000X12.000000*%
%ADD19R,1.200000X1.200000*%
%ADD20R,0.700000X3.400000*%
%ADD21RoundRect,0.225000X-0.225000X-0.250000X0.225000X-0.250000X0.225000X0.250000X-0.225000X0.250000X0*%
%ADD22RotRect,1.200000X1.200000X330.000000*%
%ADD23RotRect,0.700000X3.400000X330.000000*%
%ADD24RotRect,1.200000X1.200000X30.000000*%
%ADD25RotRect,0.700000X3.400000X30.000000*%
%ADD26RoundRect,0.225000X-0.319856X-0.104006X0.069856X-0.329006X0.319856X0.104006X-0.069856X0.329006X0*%
%ADD27RotRect,1.200000X1.200000X348.000000*%
%ADD28RotRect,0.700000X3.400000X348.000000*%
%ADD29C,1.600000*%
%ADD30FreePoly0,290.000000*%
%ADD31R,2.000000X3.250000*%
%ADD32R,3.250000X2.000000*%
%ADD33RoundRect,0.225000X0.069856X0.329006X-0.319856X0.104006X-0.069856X-0.329006X0.319856X-0.104006X0*%
G04 APERTURE END LIST*
D10*
X39671429Y-172280501D02*
X39500001Y-172366215D01*
X39500001Y-172366215D02*
X39157144Y-172366215D01*
X39157144Y-172366215D02*
X38985715Y-172280501D01*
X38985715Y-172280501D02*
X38900001Y-172109072D01*
X38900001Y-172109072D02*
X38900001Y-171423358D01*
X38900001Y-171423358D02*
X38985715Y-171251929D01*
X38985715Y-171251929D02*
X39157144Y-171166215D01*
X39157144Y-171166215D02*
X39500001Y-171166215D01*
X39500001Y-171166215D02*
X39671429Y-171251929D01*
X39671429Y-171251929D02*
X39757144Y-171423358D01*
X39757144Y-171423358D02*
X39757144Y-171594786D01*
X39757144Y-171594786D02*
X38900001Y-171766215D01*
X40442858Y-172280501D02*
X40614286Y-172366215D01*
X40614286Y-172366215D02*
X40957143Y-172366215D01*
X40957143Y-172366215D02*
X41128572Y-172280501D01*
X41128572Y-172280501D02*
X41214286Y-172109072D01*
X41214286Y-172109072D02*
X41214286Y-172023358D01*
X41214286Y-172023358D02*
X41128572Y-171851929D01*
X41128572Y-171851929D02*
X40957143Y-171766215D01*
X40957143Y-171766215D02*
X40700001Y-171766215D01*
X40700001Y-171766215D02*
X40528572Y-171680501D01*
X40528572Y-171680501D02*
X40442858Y-171509072D01*
X40442858Y-171509072D02*
X40442858Y-171423358D01*
X40442858Y-171423358D02*
X40528572Y-171251929D01*
X40528572Y-171251929D02*
X40700001Y-171166215D01*
X40700001Y-171166215D02*
X40957143Y-171166215D01*
X40957143Y-171166215D02*
X41128572Y-171251929D01*
X42757144Y-172280501D02*
X42585715Y-172366215D01*
X42585715Y-172366215D02*
X42242858Y-172366215D01*
X42242858Y-172366215D02*
X42071429Y-172280501D01*
X42071429Y-172280501D02*
X41985715Y-172194786D01*
X41985715Y-172194786D02*
X41900001Y-172023358D01*
X41900001Y-172023358D02*
X41900001Y-171509072D01*
X41900001Y-171509072D02*
X41985715Y-171337643D01*
X41985715Y-171337643D02*
X42071429Y-171251929D01*
X42071429Y-171251929D02*
X42242858Y-171166215D01*
X42242858Y-171166215D02*
X42585715Y-171166215D01*
X42585715Y-171166215D02*
X42757144Y-171251929D01*
X44300001Y-172366215D02*
X44300001Y-170566215D01*
X44300001Y-172280501D02*
X44128572Y-172366215D01*
X44128572Y-172366215D02*
X43785715Y-172366215D01*
X43785715Y-172366215D02*
X43614286Y-172280501D01*
X43614286Y-172280501D02*
X43528572Y-172194786D01*
X43528572Y-172194786D02*
X43442858Y-172023358D01*
X43442858Y-172023358D02*
X43442858Y-171509072D01*
X43442858Y-171509072D02*
X43528572Y-171337643D01*
X43528572Y-171337643D02*
X43614286Y-171251929D01*
X43614286Y-171251929D02*
X43785715Y-171166215D01*
X43785715Y-171166215D02*
X44128572Y-171166215D01*
X44128572Y-171166215D02*
X44300001Y-171251929D01*
X46528572Y-172366215D02*
X46528572Y-171166215D01*
X46528572Y-171337643D02*
X46614286Y-171251929D01*
X46614286Y-171251929D02*
X46785715Y-171166215D01*
X46785715Y-171166215D02*
X47042858Y-171166215D01*
X47042858Y-171166215D02*
X47214286Y-171251929D01*
X47214286Y-171251929D02*
X47300001Y-171423358D01*
X47300001Y-171423358D02*
X47300001Y-172366215D01*
X47300001Y-171423358D02*
X47385715Y-171251929D01*
X47385715Y-171251929D02*
X47557143Y-171166215D01*
X47557143Y-171166215D02*
X47814286Y-171166215D01*
X47814286Y-171166215D02*
X47985715Y-171251929D01*
X47985715Y-171251929D02*
X48071429Y-171423358D01*
X48071429Y-171423358D02*
X48071429Y-172366215D01*
X49185715Y-172366215D02*
X49014286Y-172280501D01*
X49014286Y-172280501D02*
X48928572Y-172194786D01*
X48928572Y-172194786D02*
X48842858Y-172023358D01*
X48842858Y-172023358D02*
X48842858Y-171509072D01*
X48842858Y-171509072D02*
X48928572Y-171337643D01*
X48928572Y-171337643D02*
X49014286Y-171251929D01*
X49014286Y-171251929D02*
X49185715Y-171166215D01*
X49185715Y-171166215D02*
X49442858Y-171166215D01*
X49442858Y-171166215D02*
X49614286Y-171251929D01*
X49614286Y-171251929D02*
X49700001Y-171337643D01*
X49700001Y-171337643D02*
X49785715Y-171509072D01*
X49785715Y-171509072D02*
X49785715Y-172023358D01*
X49785715Y-172023358D02*
X49700001Y-172194786D01*
X49700001Y-172194786D02*
X49614286Y-172280501D01*
X49614286Y-172280501D02*
X49442858Y-172366215D01*
X49442858Y-172366215D02*
X49185715Y-172366215D01*
X50557143Y-171166215D02*
X50557143Y-172366215D01*
X50557143Y-171337643D02*
X50642857Y-171251929D01*
X50642857Y-171251929D02*
X50814286Y-171166215D01*
X50814286Y-171166215D02*
X51071429Y-171166215D01*
X51071429Y-171166215D02*
X51242857Y-171251929D01*
X51242857Y-171251929D02*
X51328572Y-171423358D01*
X51328572Y-171423358D02*
X51328572Y-172366215D01*
X52442857Y-172366215D02*
X52271428Y-172280501D01*
X52271428Y-172280501D02*
X52185714Y-172194786D01*
X52185714Y-172194786D02*
X52100000Y-172023358D01*
X52100000Y-172023358D02*
X52100000Y-171509072D01*
X52100000Y-171509072D02*
X52185714Y-171337643D01*
X52185714Y-171337643D02*
X52271428Y-171251929D01*
X52271428Y-171251929D02*
X52442857Y-171166215D01*
X52442857Y-171166215D02*
X52700000Y-171166215D01*
X52700000Y-171166215D02*
X52871428Y-171251929D01*
X52871428Y-171251929D02*
X52957143Y-171337643D01*
X52957143Y-171337643D02*
X53042857Y-171509072D01*
X53042857Y-171509072D02*
X53042857Y-172023358D01*
X53042857Y-172023358D02*
X52957143Y-172194786D01*
X52957143Y-172194786D02*
X52871428Y-172280501D01*
X52871428Y-172280501D02*
X52700000Y-172366215D01*
X52700000Y-172366215D02*
X52442857Y-172366215D01*
X54071428Y-172366215D02*
X53899999Y-172280501D01*
X53899999Y-172280501D02*
X53814285Y-172109072D01*
X53814285Y-172109072D02*
X53814285Y-170566215D01*
X54757142Y-172366215D02*
X54757142Y-171166215D01*
X54757142Y-170566215D02*
X54671428Y-170651929D01*
X54671428Y-170651929D02*
X54757142Y-170737643D01*
X54757142Y-170737643D02*
X54842856Y-170651929D01*
X54842856Y-170651929D02*
X54757142Y-170566215D01*
X54757142Y-170566215D02*
X54757142Y-170737643D01*
X55357142Y-171166215D02*
X56042856Y-171166215D01*
X55614285Y-170566215D02*
X55614285Y-172109072D01*
X55614285Y-172109072D02*
X55699999Y-172280501D01*
X55699999Y-172280501D02*
X55871428Y-172366215D01*
X55871428Y-172366215D02*
X56042856Y-172366215D01*
X56642856Y-172366215D02*
X56642856Y-170566215D01*
X57414285Y-172366215D02*
X57414285Y-171423358D01*
X57414285Y-171423358D02*
X57328570Y-171251929D01*
X57328570Y-171251929D02*
X57157142Y-171166215D01*
X57157142Y-171166215D02*
X56899999Y-171166215D01*
X56899999Y-171166215D02*
X56728570Y-171251929D01*
X56728570Y-171251929D02*
X56642856Y-171337643D01*
X45628570Y-174064114D02*
X46057142Y-175264114D01*
X46057142Y-175264114D02*
X46485713Y-174064114D01*
X48114285Y-175264114D02*
X47085714Y-175264114D01*
X47599999Y-175264114D02*
X47599999Y-173464114D01*
X47599999Y-173464114D02*
X47428571Y-173721257D01*
X47428571Y-173721257D02*
X47257142Y-173892685D01*
X47257142Y-173892685D02*
X47085714Y-173978400D01*
X48885714Y-175092685D02*
X48971428Y-175178400D01*
X48971428Y-175178400D02*
X48885714Y-175264114D01*
X48885714Y-175264114D02*
X48800000Y-175178400D01*
X48800000Y-175178400D02*
X48885714Y-175092685D01*
X48885714Y-175092685D02*
X48885714Y-175264114D01*
X50085714Y-173464114D02*
X50257143Y-173464114D01*
X50257143Y-173464114D02*
X50428571Y-173549828D01*
X50428571Y-173549828D02*
X50514286Y-173635542D01*
X50514286Y-173635542D02*
X50600000Y-173806971D01*
X50600000Y-173806971D02*
X50685714Y-174149828D01*
X50685714Y-174149828D02*
X50685714Y-174578400D01*
X50685714Y-174578400D02*
X50600000Y-174921257D01*
X50600000Y-174921257D02*
X50514286Y-175092685D01*
X50514286Y-175092685D02*
X50428571Y-175178400D01*
X50428571Y-175178400D02*
X50257143Y-175264114D01*
X50257143Y-175264114D02*
X50085714Y-175264114D01*
X50085714Y-175264114D02*
X49914286Y-175178400D01*
X49914286Y-175178400D02*
X49828571Y-175092685D01*
X49828571Y-175092685D02*
X49742857Y-174921257D01*
X49742857Y-174921257D02*
X49657143Y-174578400D01*
X49657143Y-174578400D02*
X49657143Y-174149828D01*
X49657143Y-174149828D02*
X49742857Y-173806971D01*
X49742857Y-173806971D02*
X49828571Y-173635542D01*
X49828571Y-173635542D02*
X49914286Y-173549828D01*
X49914286Y-173549828D02*
X50085714Y-173464114D01*
D11*
X49179524Y-180362295D02*
X49179524Y-179562295D01*
X49179524Y-179562295D02*
X49370000Y-179562295D01*
X49370000Y-179562295D02*
X49484286Y-179600390D01*
X49484286Y-179600390D02*
X49560476Y-179676580D01*
X49560476Y-179676580D02*
X49598571Y-179752771D01*
X49598571Y-179752771D02*
X49636667Y-179905152D01*
X49636667Y-179905152D02*
X49636667Y-180019438D01*
X49636667Y-180019438D02*
X49598571Y-180171819D01*
X49598571Y-180171819D02*
X49560476Y-180248009D01*
X49560476Y-180248009D02*
X49484286Y-180324200D01*
X49484286Y-180324200D02*
X49370000Y-180362295D01*
X49370000Y-180362295D02*
X49179524Y-180362295D01*
X50322381Y-179828961D02*
X50322381Y-180362295D01*
X50131905Y-179524200D02*
X49941428Y-180095628D01*
X49941428Y-180095628D02*
X50436667Y-180095628D01*
X62362295Y-176511428D02*
X61562295Y-176511428D01*
X61562295Y-176511428D02*
X61562295Y-176320952D01*
X61562295Y-176320952D02*
X61600390Y-176206666D01*
X61600390Y-176206666D02*
X61676580Y-176130476D01*
X61676580Y-176130476D02*
X61752771Y-176092381D01*
X61752771Y-176092381D02*
X61905152Y-176054285D01*
X61905152Y-176054285D02*
X62019438Y-176054285D01*
X62019438Y-176054285D02*
X62171819Y-176092381D01*
X62171819Y-176092381D02*
X62248009Y-176130476D01*
X62248009Y-176130476D02*
X62324200Y-176206666D01*
X62324200Y-176206666D02*
X62362295Y-176320952D01*
X62362295Y-176320952D02*
X62362295Y-176511428D01*
X62362295Y-175292381D02*
X62362295Y-175749524D01*
X62362295Y-175520952D02*
X61562295Y-175520952D01*
X61562295Y-175520952D02*
X61676580Y-175597143D01*
X61676580Y-175597143D02*
X61752771Y-175673333D01*
X61752771Y-175673333D02*
X61790866Y-175749524D01*
X61562295Y-175025714D02*
X61562295Y-174530476D01*
X61562295Y-174530476D02*
X61867057Y-174797142D01*
X61867057Y-174797142D02*
X61867057Y-174682857D01*
X61867057Y-174682857D02*
X61905152Y-174606666D01*
X61905152Y-174606666D02*
X61943247Y-174568571D01*
X61943247Y-174568571D02*
X62019438Y-174530476D01*
X62019438Y-174530476D02*
X62209914Y-174530476D01*
X62209914Y-174530476D02*
X62286104Y-174568571D01*
X62286104Y-174568571D02*
X62324200Y-174606666D01*
X62324200Y-174606666D02*
X62362295Y-174682857D01*
X62362295Y-174682857D02*
X62362295Y-174911428D01*
X62362295Y-174911428D02*
X62324200Y-174987619D01*
X62324200Y-174987619D02*
X62286104Y-175025714D01*
X44099524Y-180362295D02*
X44099524Y-179562295D01*
X44099524Y-179562295D02*
X44290000Y-179562295D01*
X44290000Y-179562295D02*
X44404286Y-179600390D01*
X44404286Y-179600390D02*
X44480476Y-179676580D01*
X44480476Y-179676580D02*
X44518571Y-179752771D01*
X44518571Y-179752771D02*
X44556667Y-179905152D01*
X44556667Y-179905152D02*
X44556667Y-180019438D01*
X44556667Y-180019438D02*
X44518571Y-180171819D01*
X44518571Y-180171819D02*
X44480476Y-180248009D01*
X44480476Y-180248009D02*
X44404286Y-180324200D01*
X44404286Y-180324200D02*
X44290000Y-180362295D01*
X44290000Y-180362295D02*
X44099524Y-180362295D01*
X44861428Y-179638485D02*
X44899524Y-179600390D01*
X44899524Y-179600390D02*
X44975714Y-179562295D01*
X44975714Y-179562295D02*
X45166190Y-179562295D01*
X45166190Y-179562295D02*
X45242381Y-179600390D01*
X45242381Y-179600390D02*
X45280476Y-179638485D01*
X45280476Y-179638485D02*
X45318571Y-179714676D01*
X45318571Y-179714676D02*
X45318571Y-179790866D01*
X45318571Y-179790866D02*
X45280476Y-179905152D01*
X45280476Y-179905152D02*
X44823333Y-180362295D01*
X44823333Y-180362295D02*
X45318571Y-180362295D01*
X48201428Y-165637704D02*
X48201428Y-166437704D01*
X48201428Y-166437704D02*
X48010952Y-166437704D01*
X48010952Y-166437704D02*
X47896666Y-166399609D01*
X47896666Y-166399609D02*
X47820476Y-166323419D01*
X47820476Y-166323419D02*
X47782381Y-166247228D01*
X47782381Y-166247228D02*
X47744285Y-166094847D01*
X47744285Y-166094847D02*
X47744285Y-165980561D01*
X47744285Y-165980561D02*
X47782381Y-165828180D01*
X47782381Y-165828180D02*
X47820476Y-165751990D01*
X47820476Y-165751990D02*
X47896666Y-165675800D01*
X47896666Y-165675800D02*
X48010952Y-165637704D01*
X48010952Y-165637704D02*
X48201428Y-165637704D01*
X47439524Y-166361514D02*
X47401428Y-166399609D01*
X47401428Y-166399609D02*
X47325238Y-166437704D01*
X47325238Y-166437704D02*
X47134762Y-166437704D01*
X47134762Y-166437704D02*
X47058571Y-166399609D01*
X47058571Y-166399609D02*
X47020476Y-166361514D01*
X47020476Y-166361514D02*
X46982381Y-166285323D01*
X46982381Y-166285323D02*
X46982381Y-166209133D01*
X46982381Y-166209133D02*
X47020476Y-166094847D01*
X47020476Y-166094847D02*
X47477619Y-165637704D01*
X47477619Y-165637704D02*
X46982381Y-165637704D01*
X46525238Y-166094847D02*
X46601428Y-166132942D01*
X46601428Y-166132942D02*
X46639523Y-166171038D01*
X46639523Y-166171038D02*
X46677619Y-166247228D01*
X46677619Y-166247228D02*
X46677619Y-166285323D01*
X46677619Y-166285323D02*
X46639523Y-166361514D01*
X46639523Y-166361514D02*
X46601428Y-166399609D01*
X46601428Y-166399609D02*
X46525238Y-166437704D01*
X46525238Y-166437704D02*
X46372857Y-166437704D01*
X46372857Y-166437704D02*
X46296666Y-166399609D01*
X46296666Y-166399609D02*
X46258571Y-166361514D01*
X46258571Y-166361514D02*
X46220476Y-166285323D01*
X46220476Y-166285323D02*
X46220476Y-166247228D01*
X46220476Y-166247228D02*
X46258571Y-166171038D01*
X46258571Y-166171038D02*
X46296666Y-166132942D01*
X46296666Y-166132942D02*
X46372857Y-166094847D01*
X46372857Y-166094847D02*
X46525238Y-166094847D01*
X46525238Y-166094847D02*
X46601428Y-166056752D01*
X46601428Y-166056752D02*
X46639523Y-166018657D01*
X46639523Y-166018657D02*
X46677619Y-165942466D01*
X46677619Y-165942466D02*
X46677619Y-165790085D01*
X46677619Y-165790085D02*
X46639523Y-165713895D01*
X46639523Y-165713895D02*
X46601428Y-165675800D01*
X46601428Y-165675800D02*
X46525238Y-165637704D01*
X46525238Y-165637704D02*
X46372857Y-165637704D01*
X46372857Y-165637704D02*
X46296666Y-165675800D01*
X46296666Y-165675800D02*
X46258571Y-165713895D01*
X46258571Y-165713895D02*
X46220476Y-165790085D01*
X46220476Y-165790085D02*
X46220476Y-165942466D01*
X46220476Y-165942466D02*
X46258571Y-166018657D01*
X46258571Y-166018657D02*
X46296666Y-166056752D01*
X46296666Y-166056752D02*
X46372857Y-166094847D01*
X40170475Y-165637704D02*
X40437142Y-166018657D01*
X40627618Y-165637704D02*
X40627618Y-166437704D01*
X40627618Y-166437704D02*
X40322856Y-166437704D01*
X40322856Y-166437704D02*
X40246666Y-166399609D01*
X40246666Y-166399609D02*
X40208571Y-166361514D01*
X40208571Y-166361514D02*
X40170475Y-166285323D01*
X40170475Y-166285323D02*
X40170475Y-166171038D01*
X40170475Y-166171038D02*
X40208571Y-166094847D01*
X40208571Y-166094847D02*
X40246666Y-166056752D01*
X40246666Y-166056752D02*
X40322856Y-166018657D01*
X40322856Y-166018657D02*
X40627618Y-166018657D01*
X39827618Y-166437704D02*
X39827618Y-165790085D01*
X39827618Y-165790085D02*
X39789523Y-165713895D01*
X39789523Y-165713895D02*
X39751428Y-165675800D01*
X39751428Y-165675800D02*
X39675237Y-165637704D01*
X39675237Y-165637704D02*
X39522856Y-165637704D01*
X39522856Y-165637704D02*
X39446666Y-165675800D01*
X39446666Y-165675800D02*
X39408571Y-165713895D01*
X39408571Y-165713895D02*
X39370475Y-165790085D01*
X39370475Y-165790085D02*
X39370475Y-166437704D01*
X38989523Y-165637704D02*
X38989523Y-166437704D01*
X38989523Y-166437704D02*
X38532380Y-165637704D01*
X38532380Y-165637704D02*
X38532380Y-166437704D01*
X53281428Y-165637704D02*
X53281428Y-166437704D01*
X53281428Y-166437704D02*
X53090952Y-166437704D01*
X53090952Y-166437704D02*
X52976666Y-166399609D01*
X52976666Y-166399609D02*
X52900476Y-166323419D01*
X52900476Y-166323419D02*
X52862381Y-166247228D01*
X52862381Y-166247228D02*
X52824285Y-166094847D01*
X52824285Y-166094847D02*
X52824285Y-165980561D01*
X52824285Y-165980561D02*
X52862381Y-165828180D01*
X52862381Y-165828180D02*
X52900476Y-165751990D01*
X52900476Y-165751990D02*
X52976666Y-165675800D01*
X52976666Y-165675800D02*
X53090952Y-165637704D01*
X53090952Y-165637704D02*
X53281428Y-165637704D01*
X52519524Y-166361514D02*
X52481428Y-166399609D01*
X52481428Y-166399609D02*
X52405238Y-166437704D01*
X52405238Y-166437704D02*
X52214762Y-166437704D01*
X52214762Y-166437704D02*
X52138571Y-166399609D01*
X52138571Y-166399609D02*
X52100476Y-166361514D01*
X52100476Y-166361514D02*
X52062381Y-166285323D01*
X52062381Y-166285323D02*
X52062381Y-166209133D01*
X52062381Y-166209133D02*
X52100476Y-166094847D01*
X52100476Y-166094847D02*
X52557619Y-165637704D01*
X52557619Y-165637704D02*
X52062381Y-165637704D01*
X51376666Y-166437704D02*
X51529047Y-166437704D01*
X51529047Y-166437704D02*
X51605238Y-166399609D01*
X51605238Y-166399609D02*
X51643333Y-166361514D01*
X51643333Y-166361514D02*
X51719523Y-166247228D01*
X51719523Y-166247228D02*
X51757619Y-166094847D01*
X51757619Y-166094847D02*
X51757619Y-165790085D01*
X51757619Y-165790085D02*
X51719523Y-165713895D01*
X51719523Y-165713895D02*
X51681428Y-165675800D01*
X51681428Y-165675800D02*
X51605238Y-165637704D01*
X51605238Y-165637704D02*
X51452857Y-165637704D01*
X51452857Y-165637704D02*
X51376666Y-165675800D01*
X51376666Y-165675800D02*
X51338571Y-165713895D01*
X51338571Y-165713895D02*
X51300476Y-165790085D01*
X51300476Y-165790085D02*
X51300476Y-165980561D01*
X51300476Y-165980561D02*
X51338571Y-166056752D01*
X51338571Y-166056752D02*
X51376666Y-166094847D01*
X51376666Y-166094847D02*
X51452857Y-166132942D01*
X51452857Y-166132942D02*
X51605238Y-166132942D01*
X51605238Y-166132942D02*
X51681428Y-166094847D01*
X51681428Y-166094847D02*
X51719523Y-166056752D01*
X51719523Y-166056752D02*
X51757619Y-165980561D01*
X59339524Y-180362295D02*
X59339524Y-179562295D01*
X59339524Y-179562295D02*
X59530000Y-179562295D01*
X59530000Y-179562295D02*
X59644286Y-179600390D01*
X59644286Y-179600390D02*
X59720476Y-179676580D01*
X59720476Y-179676580D02*
X59758571Y-179752771D01*
X59758571Y-179752771D02*
X59796667Y-179905152D01*
X59796667Y-179905152D02*
X59796667Y-180019438D01*
X59796667Y-180019438D02*
X59758571Y-180171819D01*
X59758571Y-180171819D02*
X59720476Y-180248009D01*
X59720476Y-180248009D02*
X59644286Y-180324200D01*
X59644286Y-180324200D02*
X59530000Y-180362295D01*
X59530000Y-180362295D02*
X59339524Y-180362295D01*
X60253809Y-179905152D02*
X60177619Y-179867057D01*
X60177619Y-179867057D02*
X60139524Y-179828961D01*
X60139524Y-179828961D02*
X60101428Y-179752771D01*
X60101428Y-179752771D02*
X60101428Y-179714676D01*
X60101428Y-179714676D02*
X60139524Y-179638485D01*
X60139524Y-179638485D02*
X60177619Y-179600390D01*
X60177619Y-179600390D02*
X60253809Y-179562295D01*
X60253809Y-179562295D02*
X60406190Y-179562295D01*
X60406190Y-179562295D02*
X60482381Y-179600390D01*
X60482381Y-179600390D02*
X60520476Y-179638485D01*
X60520476Y-179638485D02*
X60558571Y-179714676D01*
X60558571Y-179714676D02*
X60558571Y-179752771D01*
X60558571Y-179752771D02*
X60520476Y-179828961D01*
X60520476Y-179828961D02*
X60482381Y-179867057D01*
X60482381Y-179867057D02*
X60406190Y-179905152D01*
X60406190Y-179905152D02*
X60253809Y-179905152D01*
X60253809Y-179905152D02*
X60177619Y-179943247D01*
X60177619Y-179943247D02*
X60139524Y-179981342D01*
X60139524Y-179981342D02*
X60101428Y-180057533D01*
X60101428Y-180057533D02*
X60101428Y-180209914D01*
X60101428Y-180209914D02*
X60139524Y-180286104D01*
X60139524Y-180286104D02*
X60177619Y-180324200D01*
X60177619Y-180324200D02*
X60253809Y-180362295D01*
X60253809Y-180362295D02*
X60406190Y-180362295D01*
X60406190Y-180362295D02*
X60482381Y-180324200D01*
X60482381Y-180324200D02*
X60520476Y-180286104D01*
X60520476Y-180286104D02*
X60558571Y-180209914D01*
X60558571Y-180209914D02*
X60558571Y-180057533D01*
X60558571Y-180057533D02*
X60520476Y-179981342D01*
X60520476Y-179981342D02*
X60482381Y-179943247D01*
X60482381Y-179943247D02*
X60406190Y-179905152D01*
X63471428Y-165637704D02*
X63471428Y-166437704D01*
X63471428Y-166437704D02*
X63280952Y-166437704D01*
X63280952Y-166437704D02*
X63166666Y-166399609D01*
X63166666Y-166399609D02*
X63090476Y-166323419D01*
X63090476Y-166323419D02*
X63052381Y-166247228D01*
X63052381Y-166247228D02*
X63014285Y-166094847D01*
X63014285Y-166094847D02*
X63014285Y-165980561D01*
X63014285Y-165980561D02*
X63052381Y-165828180D01*
X63052381Y-165828180D02*
X63090476Y-165751990D01*
X63090476Y-165751990D02*
X63166666Y-165675800D01*
X63166666Y-165675800D02*
X63280952Y-165637704D01*
X63280952Y-165637704D02*
X63471428Y-165637704D01*
X62709524Y-166361514D02*
X62671428Y-166399609D01*
X62671428Y-166399609D02*
X62595238Y-166437704D01*
X62595238Y-166437704D02*
X62404762Y-166437704D01*
X62404762Y-166437704D02*
X62328571Y-166399609D01*
X62328571Y-166399609D02*
X62290476Y-166361514D01*
X62290476Y-166361514D02*
X62252381Y-166285323D01*
X62252381Y-166285323D02*
X62252381Y-166209133D01*
X62252381Y-166209133D02*
X62290476Y-166094847D01*
X62290476Y-166094847D02*
X62747619Y-165637704D01*
X62747619Y-165637704D02*
X62252381Y-165637704D01*
X61490476Y-165637704D02*
X61947619Y-165637704D01*
X61719047Y-165637704D02*
X61719047Y-166437704D01*
X61719047Y-166437704D02*
X61795238Y-166323419D01*
X61795238Y-166323419D02*
X61871428Y-166247228D01*
X61871428Y-166247228D02*
X61947619Y-166209133D01*
X46639524Y-180362295D02*
X46639524Y-179562295D01*
X46639524Y-179562295D02*
X46830000Y-179562295D01*
X46830000Y-179562295D02*
X46944286Y-179600390D01*
X46944286Y-179600390D02*
X47020476Y-179676580D01*
X47020476Y-179676580D02*
X47058571Y-179752771D01*
X47058571Y-179752771D02*
X47096667Y-179905152D01*
X47096667Y-179905152D02*
X47096667Y-180019438D01*
X47096667Y-180019438D02*
X47058571Y-180171819D01*
X47058571Y-180171819D02*
X47020476Y-180248009D01*
X47020476Y-180248009D02*
X46944286Y-180324200D01*
X46944286Y-180324200D02*
X46830000Y-180362295D01*
X46830000Y-180362295D02*
X46639524Y-180362295D01*
X47363333Y-179562295D02*
X47858571Y-179562295D01*
X47858571Y-179562295D02*
X47591905Y-179867057D01*
X47591905Y-179867057D02*
X47706190Y-179867057D01*
X47706190Y-179867057D02*
X47782381Y-179905152D01*
X47782381Y-179905152D02*
X47820476Y-179943247D01*
X47820476Y-179943247D02*
X47858571Y-180019438D01*
X47858571Y-180019438D02*
X47858571Y-180209914D01*
X47858571Y-180209914D02*
X47820476Y-180286104D01*
X47820476Y-180286104D02*
X47782381Y-180324200D01*
X47782381Y-180324200D02*
X47706190Y-180362295D01*
X47706190Y-180362295D02*
X47477619Y-180362295D01*
X47477619Y-180362295D02*
X47401428Y-180324200D01*
X47401428Y-180324200D02*
X47363333Y-180286104D01*
X36479524Y-180362295D02*
X36479524Y-179562295D01*
X36479524Y-179562295D02*
X36670000Y-179562295D01*
X36670000Y-179562295D02*
X36784286Y-179600390D01*
X36784286Y-179600390D02*
X36860476Y-179676580D01*
X36860476Y-179676580D02*
X36898571Y-179752771D01*
X36898571Y-179752771D02*
X36936667Y-179905152D01*
X36936667Y-179905152D02*
X36936667Y-180019438D01*
X36936667Y-180019438D02*
X36898571Y-180171819D01*
X36898571Y-180171819D02*
X36860476Y-180248009D01*
X36860476Y-180248009D02*
X36784286Y-180324200D01*
X36784286Y-180324200D02*
X36670000Y-180362295D01*
X36670000Y-180362295D02*
X36479524Y-180362295D01*
X37698571Y-180362295D02*
X37241428Y-180362295D01*
X37470000Y-180362295D02*
X37470000Y-179562295D01*
X37470000Y-179562295D02*
X37393809Y-179676580D01*
X37393809Y-179676580D02*
X37317619Y-179752771D01*
X37317619Y-179752771D02*
X37241428Y-179790866D01*
X35052380Y-165637704D02*
X35319047Y-166018657D01*
X35509523Y-165637704D02*
X35509523Y-166437704D01*
X35509523Y-166437704D02*
X35204761Y-166437704D01*
X35204761Y-166437704D02*
X35128571Y-166399609D01*
X35128571Y-166399609D02*
X35090476Y-166361514D01*
X35090476Y-166361514D02*
X35052380Y-166285323D01*
X35052380Y-166285323D02*
X35052380Y-166171038D01*
X35052380Y-166171038D02*
X35090476Y-166094847D01*
X35090476Y-166094847D02*
X35128571Y-166056752D01*
X35128571Y-166056752D02*
X35204761Y-166018657D01*
X35204761Y-166018657D02*
X35509523Y-166018657D01*
X34747619Y-165866276D02*
X34366666Y-165866276D01*
X34823809Y-165637704D02*
X34557142Y-166437704D01*
X34557142Y-166437704D02*
X34290476Y-165637704D01*
X34100000Y-166437704D02*
X33909524Y-165637704D01*
X33909524Y-165637704D02*
X33757143Y-166209133D01*
X33757143Y-166209133D02*
X33604762Y-165637704D01*
X33604762Y-165637704D02*
X33414286Y-166437704D01*
X61909524Y-180362295D02*
X61909524Y-179562295D01*
X61909524Y-179562295D02*
X62100000Y-179562295D01*
X62100000Y-179562295D02*
X62214286Y-179600390D01*
X62214286Y-179600390D02*
X62290476Y-179676580D01*
X62290476Y-179676580D02*
X62328571Y-179752771D01*
X62328571Y-179752771D02*
X62366667Y-179905152D01*
X62366667Y-179905152D02*
X62366667Y-180019438D01*
X62366667Y-180019438D02*
X62328571Y-180171819D01*
X62328571Y-180171819D02*
X62290476Y-180248009D01*
X62290476Y-180248009D02*
X62214286Y-180324200D01*
X62214286Y-180324200D02*
X62100000Y-180362295D01*
X62100000Y-180362295D02*
X61909524Y-180362295D01*
X62747619Y-180362295D02*
X62900000Y-180362295D01*
X62900000Y-180362295D02*
X62976190Y-180324200D01*
X62976190Y-180324200D02*
X63014286Y-180286104D01*
X63014286Y-180286104D02*
X63090476Y-180171819D01*
X63090476Y-180171819D02*
X63128571Y-180019438D01*
X63128571Y-180019438D02*
X63128571Y-179714676D01*
X63128571Y-179714676D02*
X63090476Y-179638485D01*
X63090476Y-179638485D02*
X63052381Y-179600390D01*
X63052381Y-179600390D02*
X62976190Y-179562295D01*
X62976190Y-179562295D02*
X62823809Y-179562295D01*
X62823809Y-179562295D02*
X62747619Y-179600390D01*
X62747619Y-179600390D02*
X62709524Y-179638485D01*
X62709524Y-179638485D02*
X62671428Y-179714676D01*
X62671428Y-179714676D02*
X62671428Y-179905152D01*
X62671428Y-179905152D02*
X62709524Y-179981342D01*
X62709524Y-179981342D02*
X62747619Y-180019438D01*
X62747619Y-180019438D02*
X62823809Y-180057533D01*
X62823809Y-180057533D02*
X62976190Y-180057533D01*
X62976190Y-180057533D02*
X63052381Y-180019438D01*
X63052381Y-180019438D02*
X63090476Y-179981342D01*
X63090476Y-179981342D02*
X63128571Y-179905152D01*
X62362295Y-173971428D02*
X61562295Y-173971428D01*
X61562295Y-173971428D02*
X61562295Y-173780952D01*
X61562295Y-173780952D02*
X61600390Y-173666666D01*
X61600390Y-173666666D02*
X61676580Y-173590476D01*
X61676580Y-173590476D02*
X61752771Y-173552381D01*
X61752771Y-173552381D02*
X61905152Y-173514285D01*
X61905152Y-173514285D02*
X62019438Y-173514285D01*
X62019438Y-173514285D02*
X62171819Y-173552381D01*
X62171819Y-173552381D02*
X62248009Y-173590476D01*
X62248009Y-173590476D02*
X62324200Y-173666666D01*
X62324200Y-173666666D02*
X62362295Y-173780952D01*
X62362295Y-173780952D02*
X62362295Y-173971428D01*
X62362295Y-172752381D02*
X62362295Y-173209524D01*
X62362295Y-172980952D02*
X61562295Y-172980952D01*
X61562295Y-172980952D02*
X61676580Y-173057143D01*
X61676580Y-173057143D02*
X61752771Y-173133333D01*
X61752771Y-173133333D02*
X61790866Y-173209524D01*
X61828961Y-172066666D02*
X62362295Y-172066666D01*
X61524200Y-172257142D02*
X62095628Y-172447619D01*
X62095628Y-172447619D02*
X62095628Y-171952380D01*
X43216666Y-166437704D02*
X42949999Y-165637704D01*
X42949999Y-165637704D02*
X42683333Y-166437704D01*
X41959523Y-165713895D02*
X41997619Y-165675800D01*
X41997619Y-165675800D02*
X42111904Y-165637704D01*
X42111904Y-165637704D02*
X42188095Y-165637704D01*
X42188095Y-165637704D02*
X42302381Y-165675800D01*
X42302381Y-165675800D02*
X42378571Y-165751990D01*
X42378571Y-165751990D02*
X42416666Y-165828180D01*
X42416666Y-165828180D02*
X42454762Y-165980561D01*
X42454762Y-165980561D02*
X42454762Y-166094847D01*
X42454762Y-166094847D02*
X42416666Y-166247228D01*
X42416666Y-166247228D02*
X42378571Y-166323419D01*
X42378571Y-166323419D02*
X42302381Y-166399609D01*
X42302381Y-166399609D02*
X42188095Y-166437704D01*
X42188095Y-166437704D02*
X42111904Y-166437704D01*
X42111904Y-166437704D02*
X41997619Y-166399609D01*
X41997619Y-166399609D02*
X41959523Y-166361514D01*
X41159523Y-165713895D02*
X41197619Y-165675800D01*
X41197619Y-165675800D02*
X41311904Y-165637704D01*
X41311904Y-165637704D02*
X41388095Y-165637704D01*
X41388095Y-165637704D02*
X41502381Y-165675800D01*
X41502381Y-165675800D02*
X41578571Y-165751990D01*
X41578571Y-165751990D02*
X41616666Y-165828180D01*
X41616666Y-165828180D02*
X41654762Y-165980561D01*
X41654762Y-165980561D02*
X41654762Y-166094847D01*
X41654762Y-166094847D02*
X41616666Y-166247228D01*
X41616666Y-166247228D02*
X41578571Y-166323419D01*
X41578571Y-166323419D02*
X41502381Y-166399609D01*
X41502381Y-166399609D02*
X41388095Y-166437704D01*
X41388095Y-166437704D02*
X41311904Y-166437704D01*
X41311904Y-166437704D02*
X41197619Y-166399609D01*
X41197619Y-166399609D02*
X41159523Y-166361514D01*
X45661428Y-165637704D02*
X45661428Y-166437704D01*
X45661428Y-166437704D02*
X45470952Y-166437704D01*
X45470952Y-166437704D02*
X45356666Y-166399609D01*
X45356666Y-166399609D02*
X45280476Y-166323419D01*
X45280476Y-166323419D02*
X45242381Y-166247228D01*
X45242381Y-166247228D02*
X45204285Y-166094847D01*
X45204285Y-166094847D02*
X45204285Y-165980561D01*
X45204285Y-165980561D02*
X45242381Y-165828180D01*
X45242381Y-165828180D02*
X45280476Y-165751990D01*
X45280476Y-165751990D02*
X45356666Y-165675800D01*
X45356666Y-165675800D02*
X45470952Y-165637704D01*
X45470952Y-165637704D02*
X45661428Y-165637704D01*
X44899524Y-166361514D02*
X44861428Y-166399609D01*
X44861428Y-166399609D02*
X44785238Y-166437704D01*
X44785238Y-166437704D02*
X44594762Y-166437704D01*
X44594762Y-166437704D02*
X44518571Y-166399609D01*
X44518571Y-166399609D02*
X44480476Y-166361514D01*
X44480476Y-166361514D02*
X44442381Y-166285323D01*
X44442381Y-166285323D02*
X44442381Y-166209133D01*
X44442381Y-166209133D02*
X44480476Y-166094847D01*
X44480476Y-166094847D02*
X44937619Y-165637704D01*
X44937619Y-165637704D02*
X44442381Y-165637704D01*
X44061428Y-165637704D02*
X43909047Y-165637704D01*
X43909047Y-165637704D02*
X43832857Y-165675800D01*
X43832857Y-165675800D02*
X43794761Y-165713895D01*
X43794761Y-165713895D02*
X43718571Y-165828180D01*
X43718571Y-165828180D02*
X43680476Y-165980561D01*
X43680476Y-165980561D02*
X43680476Y-166285323D01*
X43680476Y-166285323D02*
X43718571Y-166361514D01*
X43718571Y-166361514D02*
X43756666Y-166399609D01*
X43756666Y-166399609D02*
X43832857Y-166437704D01*
X43832857Y-166437704D02*
X43985238Y-166437704D01*
X43985238Y-166437704D02*
X44061428Y-166399609D01*
X44061428Y-166399609D02*
X44099523Y-166361514D01*
X44099523Y-166361514D02*
X44137619Y-166285323D01*
X44137619Y-166285323D02*
X44137619Y-166094847D01*
X44137619Y-166094847D02*
X44099523Y-166018657D01*
X44099523Y-166018657D02*
X44061428Y-165980561D01*
X44061428Y-165980561D02*
X43985238Y-165942466D01*
X43985238Y-165942466D02*
X43832857Y-165942466D01*
X43832857Y-165942466D02*
X43756666Y-165980561D01*
X43756666Y-165980561D02*
X43718571Y-166018657D01*
X43718571Y-166018657D02*
X43680476Y-166094847D01*
X55821428Y-165637704D02*
X55821428Y-166437704D01*
X55821428Y-166437704D02*
X55630952Y-166437704D01*
X55630952Y-166437704D02*
X55516666Y-166399609D01*
X55516666Y-166399609D02*
X55440476Y-166323419D01*
X55440476Y-166323419D02*
X55402381Y-166247228D01*
X55402381Y-166247228D02*
X55364285Y-166094847D01*
X55364285Y-166094847D02*
X55364285Y-165980561D01*
X55364285Y-165980561D02*
X55402381Y-165828180D01*
X55402381Y-165828180D02*
X55440476Y-165751990D01*
X55440476Y-165751990D02*
X55516666Y-165675800D01*
X55516666Y-165675800D02*
X55630952Y-165637704D01*
X55630952Y-165637704D02*
X55821428Y-165637704D01*
X55059524Y-166361514D02*
X55021428Y-166399609D01*
X55021428Y-166399609D02*
X54945238Y-166437704D01*
X54945238Y-166437704D02*
X54754762Y-166437704D01*
X54754762Y-166437704D02*
X54678571Y-166399609D01*
X54678571Y-166399609D02*
X54640476Y-166361514D01*
X54640476Y-166361514D02*
X54602381Y-166285323D01*
X54602381Y-166285323D02*
X54602381Y-166209133D01*
X54602381Y-166209133D02*
X54640476Y-166094847D01*
X54640476Y-166094847D02*
X55097619Y-165637704D01*
X55097619Y-165637704D02*
X54602381Y-165637704D01*
X54297619Y-166361514D02*
X54259523Y-166399609D01*
X54259523Y-166399609D02*
X54183333Y-166437704D01*
X54183333Y-166437704D02*
X53992857Y-166437704D01*
X53992857Y-166437704D02*
X53916666Y-166399609D01*
X53916666Y-166399609D02*
X53878571Y-166361514D01*
X53878571Y-166361514D02*
X53840476Y-166285323D01*
X53840476Y-166285323D02*
X53840476Y-166209133D01*
X53840476Y-166209133D02*
X53878571Y-166094847D01*
X53878571Y-166094847D02*
X54335714Y-165637704D01*
X54335714Y-165637704D02*
X53840476Y-165637704D01*
X60901428Y-165637704D02*
X60901428Y-166437704D01*
X60901428Y-166437704D02*
X60710952Y-166437704D01*
X60710952Y-166437704D02*
X60596666Y-166399609D01*
X60596666Y-166399609D02*
X60520476Y-166323419D01*
X60520476Y-166323419D02*
X60482381Y-166247228D01*
X60482381Y-166247228D02*
X60444285Y-166094847D01*
X60444285Y-166094847D02*
X60444285Y-165980561D01*
X60444285Y-165980561D02*
X60482381Y-165828180D01*
X60482381Y-165828180D02*
X60520476Y-165751990D01*
X60520476Y-165751990D02*
X60596666Y-165675800D01*
X60596666Y-165675800D02*
X60710952Y-165637704D01*
X60710952Y-165637704D02*
X60901428Y-165637704D01*
X60139524Y-166361514D02*
X60101428Y-166399609D01*
X60101428Y-166399609D02*
X60025238Y-166437704D01*
X60025238Y-166437704D02*
X59834762Y-166437704D01*
X59834762Y-166437704D02*
X59758571Y-166399609D01*
X59758571Y-166399609D02*
X59720476Y-166361514D01*
X59720476Y-166361514D02*
X59682381Y-166285323D01*
X59682381Y-166285323D02*
X59682381Y-166209133D01*
X59682381Y-166209133D02*
X59720476Y-166094847D01*
X59720476Y-166094847D02*
X60177619Y-165637704D01*
X60177619Y-165637704D02*
X59682381Y-165637704D01*
X59415714Y-166437704D02*
X58920476Y-166437704D01*
X58920476Y-166437704D02*
X59187142Y-166132942D01*
X59187142Y-166132942D02*
X59072857Y-166132942D01*
X59072857Y-166132942D02*
X58996666Y-166094847D01*
X58996666Y-166094847D02*
X58958571Y-166056752D01*
X58958571Y-166056752D02*
X58920476Y-165980561D01*
X58920476Y-165980561D02*
X58920476Y-165790085D01*
X58920476Y-165790085D02*
X58958571Y-165713895D01*
X58958571Y-165713895D02*
X58996666Y-165675800D01*
X58996666Y-165675800D02*
X59072857Y-165637704D01*
X59072857Y-165637704D02*
X59301428Y-165637704D01*
X59301428Y-165637704D02*
X59377619Y-165675800D01*
X59377619Y-165675800D02*
X59415714Y-165713895D01*
X39000476Y-179600390D02*
X38924286Y-179562295D01*
X38924286Y-179562295D02*
X38810000Y-179562295D01*
X38810000Y-179562295D02*
X38695714Y-179600390D01*
X38695714Y-179600390D02*
X38619524Y-179676580D01*
X38619524Y-179676580D02*
X38581429Y-179752771D01*
X38581429Y-179752771D02*
X38543333Y-179905152D01*
X38543333Y-179905152D02*
X38543333Y-180019438D01*
X38543333Y-180019438D02*
X38581429Y-180171819D01*
X38581429Y-180171819D02*
X38619524Y-180248009D01*
X38619524Y-180248009D02*
X38695714Y-180324200D01*
X38695714Y-180324200D02*
X38810000Y-180362295D01*
X38810000Y-180362295D02*
X38886191Y-180362295D01*
X38886191Y-180362295D02*
X39000476Y-180324200D01*
X39000476Y-180324200D02*
X39038572Y-180286104D01*
X39038572Y-180286104D02*
X39038572Y-180019438D01*
X39038572Y-180019438D02*
X38886191Y-180019438D01*
X39381429Y-180362295D02*
X39381429Y-179562295D01*
X39381429Y-179562295D02*
X39838572Y-180362295D01*
X39838572Y-180362295D02*
X39838572Y-179562295D01*
X40219524Y-180362295D02*
X40219524Y-179562295D01*
X40219524Y-179562295D02*
X40410000Y-179562295D01*
X40410000Y-179562295D02*
X40524286Y-179600390D01*
X40524286Y-179600390D02*
X40600476Y-179676580D01*
X40600476Y-179676580D02*
X40638571Y-179752771D01*
X40638571Y-179752771D02*
X40676667Y-179905152D01*
X40676667Y-179905152D02*
X40676667Y-180019438D01*
X40676667Y-180019438D02*
X40638571Y-180171819D01*
X40638571Y-180171819D02*
X40600476Y-180248009D01*
X40600476Y-180248009D02*
X40524286Y-180324200D01*
X40524286Y-180324200D02*
X40410000Y-180362295D01*
X40410000Y-180362295D02*
X40219524Y-180362295D01*
X37679523Y-166399609D02*
X37755713Y-166437704D01*
X37755713Y-166437704D02*
X37869999Y-166437704D01*
X37869999Y-166437704D02*
X37984285Y-166399609D01*
X37984285Y-166399609D02*
X38060475Y-166323419D01*
X38060475Y-166323419D02*
X38098570Y-166247228D01*
X38098570Y-166247228D02*
X38136666Y-166094847D01*
X38136666Y-166094847D02*
X38136666Y-165980561D01*
X38136666Y-165980561D02*
X38098570Y-165828180D01*
X38098570Y-165828180D02*
X38060475Y-165751990D01*
X38060475Y-165751990D02*
X37984285Y-165675800D01*
X37984285Y-165675800D02*
X37869999Y-165637704D01*
X37869999Y-165637704D02*
X37793808Y-165637704D01*
X37793808Y-165637704D02*
X37679523Y-165675800D01*
X37679523Y-165675800D02*
X37641427Y-165713895D01*
X37641427Y-165713895D02*
X37641427Y-165980561D01*
X37641427Y-165980561D02*
X37793808Y-165980561D01*
X37298570Y-165637704D02*
X37298570Y-166437704D01*
X37298570Y-166437704D02*
X36841427Y-165637704D01*
X36841427Y-165637704D02*
X36841427Y-166437704D01*
X36460475Y-165637704D02*
X36460475Y-166437704D01*
X36460475Y-166437704D02*
X36269999Y-166437704D01*
X36269999Y-166437704D02*
X36155713Y-166399609D01*
X36155713Y-166399609D02*
X36079523Y-166323419D01*
X36079523Y-166323419D02*
X36041428Y-166247228D01*
X36041428Y-166247228D02*
X36003332Y-166094847D01*
X36003332Y-166094847D02*
X36003332Y-165980561D01*
X36003332Y-165980561D02*
X36041428Y-165828180D01*
X36041428Y-165828180D02*
X36079523Y-165751990D01*
X36079523Y-165751990D02*
X36155713Y-165675800D01*
X36155713Y-165675800D02*
X36269999Y-165637704D01*
X36269999Y-165637704D02*
X36460475Y-165637704D01*
X51719524Y-180362295D02*
X51719524Y-179562295D01*
X51719524Y-179562295D02*
X51910000Y-179562295D01*
X51910000Y-179562295D02*
X52024286Y-179600390D01*
X52024286Y-179600390D02*
X52100476Y-179676580D01*
X52100476Y-179676580D02*
X52138571Y-179752771D01*
X52138571Y-179752771D02*
X52176667Y-179905152D01*
X52176667Y-179905152D02*
X52176667Y-180019438D01*
X52176667Y-180019438D02*
X52138571Y-180171819D01*
X52138571Y-180171819D02*
X52100476Y-180248009D01*
X52100476Y-180248009D02*
X52024286Y-180324200D01*
X52024286Y-180324200D02*
X51910000Y-180362295D01*
X51910000Y-180362295D02*
X51719524Y-180362295D01*
X52900476Y-179562295D02*
X52519524Y-179562295D01*
X52519524Y-179562295D02*
X52481428Y-179943247D01*
X52481428Y-179943247D02*
X52519524Y-179905152D01*
X52519524Y-179905152D02*
X52595714Y-179867057D01*
X52595714Y-179867057D02*
X52786190Y-179867057D01*
X52786190Y-179867057D02*
X52862381Y-179905152D01*
X52862381Y-179905152D02*
X52900476Y-179943247D01*
X52900476Y-179943247D02*
X52938571Y-180019438D01*
X52938571Y-180019438D02*
X52938571Y-180209914D01*
X52938571Y-180209914D02*
X52900476Y-180286104D01*
X52900476Y-180286104D02*
X52862381Y-180324200D01*
X52862381Y-180324200D02*
X52786190Y-180362295D01*
X52786190Y-180362295D02*
X52595714Y-180362295D01*
X52595714Y-180362295D02*
X52519524Y-180324200D01*
X52519524Y-180324200D02*
X52481428Y-180286104D01*
X50741428Y-165637704D02*
X50741428Y-166437704D01*
X50741428Y-166437704D02*
X50550952Y-166437704D01*
X50550952Y-166437704D02*
X50436666Y-166399609D01*
X50436666Y-166399609D02*
X50360476Y-166323419D01*
X50360476Y-166323419D02*
X50322381Y-166247228D01*
X50322381Y-166247228D02*
X50284285Y-166094847D01*
X50284285Y-166094847D02*
X50284285Y-165980561D01*
X50284285Y-165980561D02*
X50322381Y-165828180D01*
X50322381Y-165828180D02*
X50360476Y-165751990D01*
X50360476Y-165751990D02*
X50436666Y-165675800D01*
X50436666Y-165675800D02*
X50550952Y-165637704D01*
X50550952Y-165637704D02*
X50741428Y-165637704D01*
X49979524Y-166361514D02*
X49941428Y-166399609D01*
X49941428Y-166399609D02*
X49865238Y-166437704D01*
X49865238Y-166437704D02*
X49674762Y-166437704D01*
X49674762Y-166437704D02*
X49598571Y-166399609D01*
X49598571Y-166399609D02*
X49560476Y-166361514D01*
X49560476Y-166361514D02*
X49522381Y-166285323D01*
X49522381Y-166285323D02*
X49522381Y-166209133D01*
X49522381Y-166209133D02*
X49560476Y-166094847D01*
X49560476Y-166094847D02*
X50017619Y-165637704D01*
X50017619Y-165637704D02*
X49522381Y-165637704D01*
X49255714Y-166437704D02*
X48722380Y-166437704D01*
X48722380Y-166437704D02*
X49065238Y-165637704D01*
X62362295Y-168971428D02*
X61562295Y-168971428D01*
X61562295Y-168971428D02*
X61562295Y-168780952D01*
X61562295Y-168780952D02*
X61600390Y-168666666D01*
X61600390Y-168666666D02*
X61676580Y-168590476D01*
X61676580Y-168590476D02*
X61752771Y-168552381D01*
X61752771Y-168552381D02*
X61905152Y-168514285D01*
X61905152Y-168514285D02*
X62019438Y-168514285D01*
X62019438Y-168514285D02*
X62171819Y-168552381D01*
X62171819Y-168552381D02*
X62248009Y-168590476D01*
X62248009Y-168590476D02*
X62324200Y-168666666D01*
X62324200Y-168666666D02*
X62362295Y-168780952D01*
X62362295Y-168780952D02*
X62362295Y-168971428D01*
X62362295Y-167752381D02*
X62362295Y-168209524D01*
X62362295Y-167980952D02*
X61562295Y-167980952D01*
X61562295Y-167980952D02*
X61676580Y-168057143D01*
X61676580Y-168057143D02*
X61752771Y-168133333D01*
X61752771Y-168133333D02*
X61790866Y-168209524D01*
X61562295Y-167066666D02*
X61562295Y-167219047D01*
X61562295Y-167219047D02*
X61600390Y-167295238D01*
X61600390Y-167295238D02*
X61638485Y-167333333D01*
X61638485Y-167333333D02*
X61752771Y-167409523D01*
X61752771Y-167409523D02*
X61905152Y-167447619D01*
X61905152Y-167447619D02*
X62209914Y-167447619D01*
X62209914Y-167447619D02*
X62286104Y-167409523D01*
X62286104Y-167409523D02*
X62324200Y-167371428D01*
X62324200Y-167371428D02*
X62362295Y-167295238D01*
X62362295Y-167295238D02*
X62362295Y-167142857D01*
X62362295Y-167142857D02*
X62324200Y-167066666D01*
X62324200Y-167066666D02*
X62286104Y-167028571D01*
X62286104Y-167028571D02*
X62209914Y-166990476D01*
X62209914Y-166990476D02*
X62019438Y-166990476D01*
X62019438Y-166990476D02*
X61943247Y-167028571D01*
X61943247Y-167028571D02*
X61905152Y-167066666D01*
X61905152Y-167066666D02*
X61867057Y-167142857D01*
X61867057Y-167142857D02*
X61867057Y-167295238D01*
X61867057Y-167295238D02*
X61905152Y-167371428D01*
X61905152Y-167371428D02*
X61943247Y-167409523D01*
X61943247Y-167409523D02*
X62019438Y-167447619D01*
X62362295Y-171431428D02*
X61562295Y-171431428D01*
X61562295Y-171431428D02*
X61562295Y-171240952D01*
X61562295Y-171240952D02*
X61600390Y-171126666D01*
X61600390Y-171126666D02*
X61676580Y-171050476D01*
X61676580Y-171050476D02*
X61752771Y-171012381D01*
X61752771Y-171012381D02*
X61905152Y-170974285D01*
X61905152Y-170974285D02*
X62019438Y-170974285D01*
X62019438Y-170974285D02*
X62171819Y-171012381D01*
X62171819Y-171012381D02*
X62248009Y-171050476D01*
X62248009Y-171050476D02*
X62324200Y-171126666D01*
X62324200Y-171126666D02*
X62362295Y-171240952D01*
X62362295Y-171240952D02*
X62362295Y-171431428D01*
X62362295Y-170212381D02*
X62362295Y-170669524D01*
X62362295Y-170440952D02*
X61562295Y-170440952D01*
X61562295Y-170440952D02*
X61676580Y-170517143D01*
X61676580Y-170517143D02*
X61752771Y-170593333D01*
X61752771Y-170593333D02*
X61790866Y-170669524D01*
X61562295Y-169488571D02*
X61562295Y-169869523D01*
X61562295Y-169869523D02*
X61943247Y-169907619D01*
X61943247Y-169907619D02*
X61905152Y-169869523D01*
X61905152Y-169869523D02*
X61867057Y-169793333D01*
X61867057Y-169793333D02*
X61867057Y-169602857D01*
X61867057Y-169602857D02*
X61905152Y-169526666D01*
X61905152Y-169526666D02*
X61943247Y-169488571D01*
X61943247Y-169488571D02*
X62019438Y-169450476D01*
X62019438Y-169450476D02*
X62209914Y-169450476D01*
X62209914Y-169450476D02*
X62286104Y-169488571D01*
X62286104Y-169488571D02*
X62324200Y-169526666D01*
X62324200Y-169526666D02*
X62362295Y-169602857D01*
X62362295Y-169602857D02*
X62362295Y-169793333D01*
X62362295Y-169793333D02*
X62324200Y-169869523D01*
X62324200Y-169869523D02*
X62286104Y-169907619D01*
X41540476Y-179600390D02*
X41464286Y-179562295D01*
X41464286Y-179562295D02*
X41350000Y-179562295D01*
X41350000Y-179562295D02*
X41235714Y-179600390D01*
X41235714Y-179600390D02*
X41159524Y-179676580D01*
X41159524Y-179676580D02*
X41121429Y-179752771D01*
X41121429Y-179752771D02*
X41083333Y-179905152D01*
X41083333Y-179905152D02*
X41083333Y-180019438D01*
X41083333Y-180019438D02*
X41121429Y-180171819D01*
X41121429Y-180171819D02*
X41159524Y-180248009D01*
X41159524Y-180248009D02*
X41235714Y-180324200D01*
X41235714Y-180324200D02*
X41350000Y-180362295D01*
X41350000Y-180362295D02*
X41426191Y-180362295D01*
X41426191Y-180362295D02*
X41540476Y-180324200D01*
X41540476Y-180324200D02*
X41578572Y-180286104D01*
X41578572Y-180286104D02*
X41578572Y-180019438D01*
X41578572Y-180019438D02*
X41426191Y-180019438D01*
X41921429Y-180362295D02*
X41921429Y-179562295D01*
X41921429Y-179562295D02*
X42378572Y-180362295D01*
X42378572Y-180362295D02*
X42378572Y-179562295D01*
X42759524Y-180362295D02*
X42759524Y-179562295D01*
X42759524Y-179562295D02*
X42950000Y-179562295D01*
X42950000Y-179562295D02*
X43064286Y-179600390D01*
X43064286Y-179600390D02*
X43140476Y-179676580D01*
X43140476Y-179676580D02*
X43178571Y-179752771D01*
X43178571Y-179752771D02*
X43216667Y-179905152D01*
X43216667Y-179905152D02*
X43216667Y-180019438D01*
X43216667Y-180019438D02*
X43178571Y-180171819D01*
X43178571Y-180171819D02*
X43140476Y-180248009D01*
X43140476Y-180248009D02*
X43064286Y-180324200D01*
X43064286Y-180324200D02*
X42950000Y-180362295D01*
X42950000Y-180362295D02*
X42759524Y-180362295D01*
X33939524Y-180362295D02*
X33939524Y-179562295D01*
X33939524Y-179562295D02*
X34130000Y-179562295D01*
X34130000Y-179562295D02*
X34244286Y-179600390D01*
X34244286Y-179600390D02*
X34320476Y-179676580D01*
X34320476Y-179676580D02*
X34358571Y-179752771D01*
X34358571Y-179752771D02*
X34396667Y-179905152D01*
X34396667Y-179905152D02*
X34396667Y-180019438D01*
X34396667Y-180019438D02*
X34358571Y-180171819D01*
X34358571Y-180171819D02*
X34320476Y-180248009D01*
X34320476Y-180248009D02*
X34244286Y-180324200D01*
X34244286Y-180324200D02*
X34130000Y-180362295D01*
X34130000Y-180362295D02*
X33939524Y-180362295D01*
X34891905Y-179562295D02*
X34968095Y-179562295D01*
X34968095Y-179562295D02*
X35044286Y-179600390D01*
X35044286Y-179600390D02*
X35082381Y-179638485D01*
X35082381Y-179638485D02*
X35120476Y-179714676D01*
X35120476Y-179714676D02*
X35158571Y-179867057D01*
X35158571Y-179867057D02*
X35158571Y-180057533D01*
X35158571Y-180057533D02*
X35120476Y-180209914D01*
X35120476Y-180209914D02*
X35082381Y-180286104D01*
X35082381Y-180286104D02*
X35044286Y-180324200D01*
X35044286Y-180324200D02*
X34968095Y-180362295D01*
X34968095Y-180362295D02*
X34891905Y-180362295D01*
X34891905Y-180362295D02*
X34815714Y-180324200D01*
X34815714Y-180324200D02*
X34777619Y-180286104D01*
X34777619Y-180286104D02*
X34739524Y-180209914D01*
X34739524Y-180209914D02*
X34701428Y-180057533D01*
X34701428Y-180057533D02*
X34701428Y-179867057D01*
X34701428Y-179867057D02*
X34739524Y-179714676D01*
X34739524Y-179714676D02*
X34777619Y-179638485D01*
X34777619Y-179638485D02*
X34815714Y-179600390D01*
X34815714Y-179600390D02*
X34891905Y-179562295D01*
X62362295Y-178971428D02*
X61562295Y-178971428D01*
X61562295Y-178971428D02*
X61562295Y-178780952D01*
X61562295Y-178780952D02*
X61600390Y-178666666D01*
X61600390Y-178666666D02*
X61676580Y-178590476D01*
X61676580Y-178590476D02*
X61752771Y-178552381D01*
X61752771Y-178552381D02*
X61905152Y-178514285D01*
X61905152Y-178514285D02*
X62019438Y-178514285D01*
X62019438Y-178514285D02*
X62171819Y-178552381D01*
X62171819Y-178552381D02*
X62248009Y-178590476D01*
X62248009Y-178590476D02*
X62324200Y-178666666D01*
X62324200Y-178666666D02*
X62362295Y-178780952D01*
X62362295Y-178780952D02*
X62362295Y-178971428D01*
X62362295Y-177752381D02*
X62362295Y-178209524D01*
X62362295Y-177980952D02*
X61562295Y-177980952D01*
X61562295Y-177980952D02*
X61676580Y-178057143D01*
X61676580Y-178057143D02*
X61752771Y-178133333D01*
X61752771Y-178133333D02*
X61790866Y-178209524D01*
X61638485Y-177447619D02*
X61600390Y-177409523D01*
X61600390Y-177409523D02*
X61562295Y-177333333D01*
X61562295Y-177333333D02*
X61562295Y-177142857D01*
X61562295Y-177142857D02*
X61600390Y-177066666D01*
X61600390Y-177066666D02*
X61638485Y-177028571D01*
X61638485Y-177028571D02*
X61714676Y-176990476D01*
X61714676Y-176990476D02*
X61790866Y-176990476D01*
X61790866Y-176990476D02*
X61905152Y-177028571D01*
X61905152Y-177028571D02*
X62362295Y-177485714D01*
X62362295Y-177485714D02*
X62362295Y-176990476D01*
X56799524Y-180362295D02*
X56799524Y-179562295D01*
X56799524Y-179562295D02*
X56990000Y-179562295D01*
X56990000Y-179562295D02*
X57104286Y-179600390D01*
X57104286Y-179600390D02*
X57180476Y-179676580D01*
X57180476Y-179676580D02*
X57218571Y-179752771D01*
X57218571Y-179752771D02*
X57256667Y-179905152D01*
X57256667Y-179905152D02*
X57256667Y-180019438D01*
X57256667Y-180019438D02*
X57218571Y-180171819D01*
X57218571Y-180171819D02*
X57180476Y-180248009D01*
X57180476Y-180248009D02*
X57104286Y-180324200D01*
X57104286Y-180324200D02*
X56990000Y-180362295D01*
X56990000Y-180362295D02*
X56799524Y-180362295D01*
X57523333Y-179562295D02*
X58056667Y-179562295D01*
X58056667Y-179562295D02*
X57713809Y-180362295D01*
X58361428Y-165637704D02*
X58361428Y-166437704D01*
X58361428Y-166437704D02*
X58170952Y-166437704D01*
X58170952Y-166437704D02*
X58056666Y-166399609D01*
X58056666Y-166399609D02*
X57980476Y-166323419D01*
X57980476Y-166323419D02*
X57942381Y-166247228D01*
X57942381Y-166247228D02*
X57904285Y-166094847D01*
X57904285Y-166094847D02*
X57904285Y-165980561D01*
X57904285Y-165980561D02*
X57942381Y-165828180D01*
X57942381Y-165828180D02*
X57980476Y-165751990D01*
X57980476Y-165751990D02*
X58056666Y-165675800D01*
X58056666Y-165675800D02*
X58170952Y-165637704D01*
X58170952Y-165637704D02*
X58361428Y-165637704D01*
X57599524Y-166361514D02*
X57561428Y-166399609D01*
X57561428Y-166399609D02*
X57485238Y-166437704D01*
X57485238Y-166437704D02*
X57294762Y-166437704D01*
X57294762Y-166437704D02*
X57218571Y-166399609D01*
X57218571Y-166399609D02*
X57180476Y-166361514D01*
X57180476Y-166361514D02*
X57142381Y-166285323D01*
X57142381Y-166285323D02*
X57142381Y-166209133D01*
X57142381Y-166209133D02*
X57180476Y-166094847D01*
X57180476Y-166094847D02*
X57637619Y-165637704D01*
X57637619Y-165637704D02*
X57142381Y-165637704D01*
X56647142Y-166437704D02*
X56570952Y-166437704D01*
X56570952Y-166437704D02*
X56494761Y-166399609D01*
X56494761Y-166399609D02*
X56456666Y-166361514D01*
X56456666Y-166361514D02*
X56418571Y-166285323D01*
X56418571Y-166285323D02*
X56380476Y-166132942D01*
X56380476Y-166132942D02*
X56380476Y-165942466D01*
X56380476Y-165942466D02*
X56418571Y-165790085D01*
X56418571Y-165790085D02*
X56456666Y-165713895D01*
X56456666Y-165713895D02*
X56494761Y-165675800D01*
X56494761Y-165675800D02*
X56570952Y-165637704D01*
X56570952Y-165637704D02*
X56647142Y-165637704D01*
X56647142Y-165637704D02*
X56723333Y-165675800D01*
X56723333Y-165675800D02*
X56761428Y-165713895D01*
X56761428Y-165713895D02*
X56799523Y-165790085D01*
X56799523Y-165790085D02*
X56837619Y-165942466D01*
X56837619Y-165942466D02*
X56837619Y-166132942D01*
X56837619Y-166132942D02*
X56799523Y-166285323D01*
X56799523Y-166285323D02*
X56761428Y-166361514D01*
X56761428Y-166361514D02*
X56723333Y-166399609D01*
X56723333Y-166399609D02*
X56647142Y-166437704D01*
X54259524Y-180362295D02*
X54259524Y-179562295D01*
X54259524Y-179562295D02*
X54450000Y-179562295D01*
X54450000Y-179562295D02*
X54564286Y-179600390D01*
X54564286Y-179600390D02*
X54640476Y-179676580D01*
X54640476Y-179676580D02*
X54678571Y-179752771D01*
X54678571Y-179752771D02*
X54716667Y-179905152D01*
X54716667Y-179905152D02*
X54716667Y-180019438D01*
X54716667Y-180019438D02*
X54678571Y-180171819D01*
X54678571Y-180171819D02*
X54640476Y-180248009D01*
X54640476Y-180248009D02*
X54564286Y-180324200D01*
X54564286Y-180324200D02*
X54450000Y-180362295D01*
X54450000Y-180362295D02*
X54259524Y-180362295D01*
X55402381Y-179562295D02*
X55250000Y-179562295D01*
X55250000Y-179562295D02*
X55173809Y-179600390D01*
X55173809Y-179600390D02*
X55135714Y-179638485D01*
X55135714Y-179638485D02*
X55059524Y-179752771D01*
X55059524Y-179752771D02*
X55021428Y-179905152D01*
X55021428Y-179905152D02*
X55021428Y-180209914D01*
X55021428Y-180209914D02*
X55059524Y-180286104D01*
X55059524Y-180286104D02*
X55097619Y-180324200D01*
X55097619Y-180324200D02*
X55173809Y-180362295D01*
X55173809Y-180362295D02*
X55326190Y-180362295D01*
X55326190Y-180362295D02*
X55402381Y-180324200D01*
X55402381Y-180324200D02*
X55440476Y-180286104D01*
X55440476Y-180286104D02*
X55478571Y-180209914D01*
X55478571Y-180209914D02*
X55478571Y-180019438D01*
X55478571Y-180019438D02*
X55440476Y-179943247D01*
X55440476Y-179943247D02*
X55402381Y-179905152D01*
X55402381Y-179905152D02*
X55326190Y-179867057D01*
X55326190Y-179867057D02*
X55173809Y-179867057D01*
X55173809Y-179867057D02*
X55097619Y-179905152D01*
X55097619Y-179905152D02*
X55059524Y-179943247D01*
X55059524Y-179943247D02*
X55021428Y-180019438D01*
D12*
%TO.C,D30*%
X279410000Y-85700000D02*
X279110000Y-85900000D01*
X279710000Y-85900000D02*
X279410000Y-85700000D01*
%TO.C,D3*%
X109200000Y-85700000D02*
X108900000Y-85900000D01*
X109500000Y-85900000D02*
X109200000Y-85700000D01*
%TO.C,D31*%
X311810000Y-87300001D02*
X311510000Y-87500001D01*
X312110000Y-87500001D02*
X311810000Y-87300001D01*
%TO.C,D4*%
X116400000Y-85700000D02*
X116100000Y-85900000D01*
X116700000Y-85900000D02*
X116400000Y-85700000D01*
%TO.C,D39*%
X352110000Y-158700000D02*
X352310000Y-158400000D01*
X352310000Y-158400000D02*
X352110000Y-158100000D01*
%TO.C,D28*%
X293810000Y-85700000D02*
X293510000Y-85900000D01*
X294110000Y-85900000D02*
X293810000Y-85700000D01*
%TO.C,D24*%
X319010000Y-84100000D02*
X318710000Y-84300000D01*
X319310000Y-84300000D02*
X319010000Y-84100000D01*
%TO.C,D15*%
X57100000Y-158400000D02*
X57300000Y-158700000D01*
X57300000Y-158100000D02*
X57100000Y-158400000D01*
%TO.C,D40*%
X325910000Y-152000000D02*
X326110000Y-152300000D01*
X326110000Y-151700000D02*
X325910000Y-152000000D01*
%TO.C,D29*%
X286610000Y-85700000D02*
X286310000Y-85900000D01*
X286910000Y-85900000D02*
X286610000Y-85700000D01*
%TO.C,D42*%
X289510000Y-155700000D02*
X289710000Y-155400000D01*
X289710000Y-155400000D02*
X289510000Y-155100000D01*
%TO.C,D35*%
X283010000Y-87300001D02*
X282710000Y-87500001D01*
X283310000Y-87500001D02*
X283010000Y-87300001D01*
%TO.C,D11*%
X127200000Y-87300000D02*
X126900000Y-87500000D01*
X127500000Y-87500000D02*
X127200000Y-87300000D01*
%TO.C,D18*%
X102500000Y-152300000D02*
X102700000Y-152000000D01*
X102700000Y-152000000D02*
X102500000Y-151700000D01*
%TO.C,D12*%
X134400000Y-87300000D02*
X134100000Y-87500000D01*
X134700000Y-87500000D02*
X134400000Y-87300000D01*
%TO.C,D8*%
X105600000Y-87300000D02*
X105300000Y-87500000D01*
X105900000Y-87500000D02*
X105600000Y-87300000D01*
%TO.C,D13*%
X141600000Y-87300000D02*
X141300000Y-87500000D01*
X141900000Y-87500000D02*
X141600000Y-87300000D01*
%TO.C,D14*%
X50700000Y-158700000D02*
X50900000Y-158400000D01*
X50900000Y-158400000D02*
X50700000Y-158100000D01*
%TO.C,D25*%
X315410000Y-85700000D02*
X315110000Y-85900000D01*
X315710000Y-85900000D02*
X315410000Y-85700000D01*
%TO.C,D43*%
X325910000Y-155400000D02*
X326110000Y-155700000D01*
X326110000Y-155100000D02*
X325910000Y-155400000D01*
%TO.C,D45*%
X303510000Y-155700000D02*
X303710000Y-155400000D01*
X303710000Y-155400000D02*
X303510000Y-155100000D01*
%TO.C,D33*%
X297410000Y-87300001D02*
X297110000Y-87500001D01*
X297710000Y-87500001D02*
X297410000Y-87300001D01*
%TO.C,D6*%
X130800000Y-85700000D02*
X130500000Y-85900000D01*
X131100000Y-85900000D02*
X130800000Y-85700000D01*
%TO.C,D9*%
X112800000Y-87300000D02*
X112500000Y-87500000D01*
X113100000Y-87500000D02*
X112800000Y-87300000D01*
%TO.C,D2*%
X102000000Y-85700000D02*
X101700000Y-85900000D01*
X102300000Y-85900000D02*
X102000000Y-85700000D01*
%TO.C,D34*%
X290210000Y-87300001D02*
X289910000Y-87500001D01*
X290510000Y-87500001D02*
X290210000Y-87300001D01*
%TO.C,D41*%
X314710000Y-152000000D02*
X314910000Y-152300000D01*
X314910000Y-151700000D02*
X314710000Y-152000000D01*
%TO.C,D23*%
X161720577Y-168650000D02*
X161743782Y-169009808D01*
X162043782Y-168490192D02*
X161720577Y-168650000D01*
%TO.C,D20*%
X91300000Y-155700000D02*
X91500000Y-155400000D01*
X91500000Y-155400000D02*
X91300000Y-155100000D01*
%TO.C,D19*%
X127700000Y-155400000D02*
X127900000Y-155700000D01*
X127900000Y-155100000D02*
X127700000Y-155400000D01*
%TO.C,D17*%
X91300000Y-152300000D02*
X91500000Y-152000000D01*
X91500000Y-152000000D02*
X91300000Y-151700000D01*
%TO.C,D26*%
X308210000Y-85700000D02*
X307910000Y-85900000D01*
X308510000Y-85900000D02*
X308210000Y-85700000D01*
%TO.C,D22*%
X113700000Y-155400000D02*
X113900000Y-155700000D01*
X113900000Y-155100000D02*
X113700000Y-155400000D01*
%TO.C,D32*%
X304610000Y-87300001D02*
X304310000Y-87500001D01*
X304910000Y-87500001D02*
X304610000Y-87300001D01*
%TO.C,D27*%
X301010000Y-85700000D02*
X300710000Y-85900000D01*
X301310000Y-85900000D02*
X301010000Y-85700000D01*
%TO.C,D7*%
X138000000Y-85700000D02*
X137700000Y-85900000D01*
X138300000Y-85900000D02*
X138000000Y-85700000D01*
%TO.C,D21*%
X102500000Y-155700000D02*
X102700000Y-155400000D01*
X102700000Y-155400000D02*
X102500000Y-155100000D01*
%TO.C,D16*%
X65100000Y-158400000D02*
X65300000Y-158700000D01*
X65300000Y-158100000D02*
X65100000Y-158400000D01*
%TO.C,D44*%
X314710000Y-155400000D02*
X314910000Y-155700000D01*
X314910000Y-155100000D02*
X314710000Y-155400000D01*
%TO.C,D37*%
X366510000Y-158400000D02*
X366710000Y-158700000D01*
X366710000Y-158100000D02*
X366510000Y-158400000D01*
%TO.C,D1*%
X98400000Y-84100000D02*
X98100000Y-84300000D01*
X98700000Y-84300000D02*
X98400000Y-84100000D01*
%TO.C,D38*%
X360110000Y-158700000D02*
X360310000Y-158400000D01*
X360310000Y-158400000D02*
X360110000Y-158100000D01*
%TO.C,D46*%
X255666218Y-169009808D02*
X255689423Y-168650000D01*
X255689423Y-168650000D02*
X255366218Y-168490192D01*
%TO.C,D36*%
X275810000Y-87300001D02*
X275510000Y-87500001D01*
X276110000Y-87500001D02*
X275810000Y-87300001D01*
%TO.C,D5*%
X123600000Y-85700000D02*
X123300000Y-85900000D01*
X123900000Y-85900000D02*
X123600000Y-85700000D01*
%TO.C,D10*%
X120000000Y-87300000D02*
X119700000Y-87500000D01*
X120300000Y-87500000D02*
X120000000Y-87300000D01*
%TD*%
%LPC*%
D13*
%TO.C,D30*%
X279410000Y-85025000D03*
X279410000Y-88175000D03*
%TD*%
%TO.C,D3*%
X109200000Y-85025000D03*
X109200000Y-88175000D03*
%TD*%
%TO.C,D31*%
X311810000Y-86625001D03*
X311810000Y-89775001D03*
%TD*%
%TO.C,D4*%
X116400000Y-85025000D03*
X116400000Y-88175000D03*
%TD*%
D14*
%TO.C,D39*%
X352985000Y-158400000D03*
X349835000Y-158400000D03*
%TD*%
D13*
%TO.C,D28*%
X293810000Y-85025000D03*
X293810000Y-88175000D03*
%TD*%
D15*
%TO.C,SW45*%
X278623768Y-165010779D03*
D16*
X279871238Y-170879665D03*
D15*
X280619720Y-174400996D03*
X289970280Y-162599004D03*
D17*
X290290464Y-164105351D03*
X291646048Y-170482873D03*
D15*
X291966232Y-171989221D03*
D18*
X285137401Y-170884882D03*
X287533864Y-170375498D03*
%TD*%
D19*
%TO.C,SW42*%
X277360000Y-139968750D03*
D16*
X277360000Y-145968750D03*
D19*
X277360000Y-149568750D03*
X288960000Y-139968750D03*
D17*
X288960000Y-141508750D03*
X288960000Y-148028750D03*
D19*
X288960000Y-149568750D03*
D20*
X282510000Y-147068750D03*
X284960000Y-147068750D03*
%TD*%
D19*
%TO.C,SW4*%
X71300000Y-101868750D03*
D16*
X71300000Y-107868750D03*
D19*
X71300000Y-111468750D03*
X82900000Y-101868750D03*
D17*
X82900000Y-103408750D03*
X82900000Y-109928750D03*
D19*
X82900000Y-111468750D03*
D20*
X76450000Y-108968750D03*
X78900000Y-108968750D03*
%TD*%
D13*
%TO.C,D24*%
X319010000Y-83425000D03*
X319010000Y-86575000D03*
%TD*%
D21*
%TO.C,D15*%
X56425000Y-158400000D03*
X59575000Y-158400000D03*
%TD*%
D19*
%TO.C,SW9*%
X52250000Y-123300000D03*
D16*
X52250000Y-129300000D03*
D19*
X52250000Y-132900000D03*
X63850000Y-123300000D03*
D17*
X63850000Y-124840000D03*
X63850000Y-131360000D03*
D19*
X63850000Y-132900000D03*
D20*
X57400000Y-130400000D03*
X59850000Y-130400000D03*
%TD*%
D21*
%TO.C,D40*%
X325235000Y-152000000D03*
X328385000Y-152000000D03*
%TD*%
D13*
%TO.C,D29*%
X286610000Y-85025000D03*
X286610000Y-88175000D03*
%TD*%
D19*
%TO.C,SW41*%
X296410000Y-139968750D03*
D16*
X296410000Y-145968750D03*
D19*
X296410000Y-149568750D03*
X308010000Y-139968750D03*
D17*
X308010000Y-141508750D03*
X308010000Y-148028750D03*
D19*
X308010000Y-149568750D03*
D20*
X301560000Y-147068750D03*
X304010000Y-147068750D03*
%TD*%
D14*
%TO.C,D42*%
X290385000Y-155400000D03*
X287235000Y-155400000D03*
%TD*%
D19*
%TO.C,SW2*%
X33200000Y-104250000D03*
D16*
X33200000Y-110250000D03*
D19*
X33200000Y-113850000D03*
X44800000Y-104250000D03*
D17*
X44800000Y-105790000D03*
X44800000Y-112310000D03*
D19*
X44800000Y-113850000D03*
D20*
X38350000Y-111350000D03*
X40800000Y-111350000D03*
%TD*%
D19*
%TO.C,SW5*%
X90350000Y-97900000D03*
D16*
X90350000Y-103900000D03*
D19*
X90350000Y-107500000D03*
X101950000Y-97900000D03*
D17*
X101950000Y-99440000D03*
X101950000Y-105960000D03*
D19*
X101950000Y-107500000D03*
D20*
X95500000Y-105000000D03*
X97950000Y-105000000D03*
%TD*%
D13*
%TO.C,D35*%
X283010000Y-86625001D03*
X283010000Y-89775001D03*
%TD*%
%TO.C,D11*%
X127200000Y-86625000D03*
X127200000Y-89775000D03*
%TD*%
D19*
%TO.C,SW1*%
X37202500Y-85200000D03*
D16*
X37202500Y-91200000D03*
D19*
X37202500Y-94800000D03*
X48802500Y-85200000D03*
D17*
X48802500Y-86740000D03*
X48802500Y-93260000D03*
D19*
X48802500Y-94800000D03*
D20*
X42352500Y-92300000D03*
X44802500Y-92300000D03*
%TD*%
D14*
%TO.C,D18*%
X103375000Y-152000000D03*
X100225000Y-152000000D03*
%TD*%
D13*
%TO.C,D12*%
X134400000Y-86625000D03*
X134400000Y-89775000D03*
%TD*%
D19*
%TO.C,SW33*%
X334510000Y-120918750D03*
D16*
X334510000Y-126918750D03*
D19*
X334510000Y-130518750D03*
X346110000Y-120918750D03*
D17*
X346110000Y-122458750D03*
X346110000Y-128978750D03*
D19*
X346110000Y-130518750D03*
D20*
X339660000Y-128018750D03*
X342110000Y-128018750D03*
%TD*%
D19*
%TO.C,SW13*%
X128450000Y-120918750D03*
D16*
X128450000Y-126918750D03*
D19*
X128450000Y-130518750D03*
X140050000Y-120918750D03*
D17*
X140050000Y-122458750D03*
X140050000Y-128978750D03*
D19*
X140050000Y-130518750D03*
D20*
X133600000Y-128018750D03*
X136050000Y-128018750D03*
%TD*%
D13*
%TO.C,D8*%
X105600000Y-86625000D03*
X105600000Y-89775000D03*
%TD*%
%TO.C,D13*%
X141600000Y-86625000D03*
X141600000Y-89775000D03*
%TD*%
D19*
%TO.C,SW30*%
X277360000Y-101868750D03*
D16*
X277360000Y-107868750D03*
D19*
X277360000Y-111468750D03*
X288960000Y-101868750D03*
D17*
X288960000Y-103408750D03*
X288960000Y-109928750D03*
D19*
X288960000Y-111468750D03*
D20*
X282510000Y-108968750D03*
X284960000Y-108968750D03*
%TD*%
D14*
%TO.C,D14*%
X51575000Y-158400000D03*
X48425000Y-158400000D03*
%TD*%
D13*
%TO.C,D25*%
X315410000Y-85025000D03*
X315410000Y-88175000D03*
%TD*%
D21*
%TO.C,D43*%
X325235000Y-155400000D03*
X328385000Y-155400000D03*
%TD*%
D19*
%TO.C,SW6*%
X109400000Y-101868750D03*
D16*
X109400000Y-107868750D03*
D19*
X109400000Y-111468750D03*
X121000000Y-101868750D03*
D17*
X121000000Y-103408750D03*
X121000000Y-109928750D03*
D19*
X121000000Y-111468750D03*
D20*
X114550000Y-108968750D03*
X117000000Y-108968750D03*
%TD*%
D19*
%TO.C,SW28*%
X315460000Y-97900000D03*
D16*
X315460000Y-103900000D03*
D19*
X315460000Y-107500000D03*
X327060000Y-97900000D03*
D17*
X327060000Y-99440000D03*
X327060000Y-105960000D03*
D19*
X327060000Y-107500000D03*
D20*
X320610000Y-105000000D03*
X323060000Y-105000000D03*
%TD*%
D19*
%TO.C,SW11*%
X90350000Y-116950000D03*
D16*
X90350000Y-122950000D03*
D19*
X90350000Y-126550000D03*
X101950000Y-116950000D03*
D17*
X101950000Y-118490000D03*
X101950000Y-125010000D03*
D19*
X101950000Y-126550000D03*
D20*
X95500000Y-124050000D03*
X97950000Y-124050000D03*
%TD*%
D19*
%TO.C,SW39*%
X334510000Y-139968750D03*
D16*
X334510000Y-145968750D03*
D19*
X334510000Y-149568750D03*
X346110000Y-139968750D03*
D17*
X346110000Y-141508750D03*
X346110000Y-148028750D03*
D19*
X346110000Y-149568750D03*
D20*
X339660000Y-147068750D03*
X342110000Y-147068750D03*
%TD*%
D22*
%TO.C,SW23*%
X154434553Y-171743078D03*
D16*
X151434553Y-176939230D03*
D22*
X149634553Y-180056922D03*
X164480447Y-177543078D03*
D17*
X163710447Y-178876757D03*
X160450447Y-184523243D03*
D22*
X159680447Y-185856922D03*
D23*
X155344583Y-180466858D03*
X157466346Y-181691858D03*
%TD*%
D19*
%TO.C,SW7*%
X128450000Y-101868750D03*
D16*
X128450000Y-107868750D03*
D19*
X128450000Y-111468750D03*
X140050000Y-101868750D03*
D17*
X140050000Y-103408750D03*
X140050000Y-109928750D03*
D19*
X140050000Y-111468750D03*
D20*
X133600000Y-108968750D03*
X136050000Y-108968750D03*
%TD*%
D14*
%TO.C,D45*%
X304385000Y-155400000D03*
X301235000Y-155400000D03*
%TD*%
D13*
%TO.C,D33*%
X297410000Y-86625001D03*
X297410000Y-89775001D03*
%TD*%
D19*
%TO.C,SW44*%
X300910000Y-161400000D03*
D16*
X300910000Y-167400000D03*
D19*
X300910000Y-171000000D03*
X312510000Y-161400000D03*
D17*
X312510000Y-162940000D03*
X312510000Y-169460000D03*
D19*
X312510000Y-171000000D03*
D20*
X306060000Y-168500000D03*
X308510000Y-168500000D03*
%TD*%
D19*
%TO.C,SW35*%
X296410000Y-120918750D03*
D16*
X296410000Y-126918750D03*
D19*
X296410000Y-130518750D03*
X308010000Y-120918750D03*
D17*
X308010000Y-122458750D03*
X308010000Y-128978750D03*
D19*
X308010000Y-130518750D03*
D20*
X301560000Y-128018750D03*
X304010000Y-128018750D03*
%TD*%
D13*
%TO.C,D6*%
X130800000Y-85025000D03*
X130800000Y-88175000D03*
%TD*%
D19*
%TO.C,SW10*%
X71300000Y-120918750D03*
D16*
X71300000Y-126918750D03*
D19*
X71300000Y-130518750D03*
X82900000Y-120918750D03*
D17*
X82900000Y-122458750D03*
X82900000Y-128978750D03*
D19*
X82900000Y-130518750D03*
D20*
X76450000Y-128018750D03*
X78900000Y-128018750D03*
%TD*%
D19*
%TO.C,SW29*%
X296410000Y-101868750D03*
D16*
X296410000Y-107868750D03*
D19*
X296410000Y-111468750D03*
X308010000Y-101868750D03*
D17*
X308010000Y-103408750D03*
X308010000Y-109928750D03*
D19*
X308010000Y-111468750D03*
D20*
X301560000Y-108968750D03*
X304010000Y-108968750D03*
%TD*%
D19*
%TO.C,SW18*%
X109400000Y-139968750D03*
D16*
X109400000Y-145968750D03*
D19*
X109400000Y-149568750D03*
X121000000Y-139968750D03*
D17*
X121000000Y-141508750D03*
X121000000Y-148028750D03*
D19*
X121000000Y-149568750D03*
D20*
X114550000Y-147068750D03*
X117000000Y-147068750D03*
%TD*%
D19*
%TO.C,SW16*%
X71300000Y-139968750D03*
D16*
X71300000Y-145968750D03*
D19*
X71300000Y-149568750D03*
X82900000Y-139968750D03*
D17*
X82900000Y-141508750D03*
X82900000Y-148028750D03*
D19*
X82900000Y-149568750D03*
D20*
X76450000Y-147068750D03*
X78900000Y-147068750D03*
%TD*%
D13*
%TO.C,D9*%
X112800000Y-86625000D03*
X112800000Y-89775000D03*
%TD*%
%TO.C,D2*%
X102000000Y-85025000D03*
X102000000Y-88175000D03*
%TD*%
D24*
%TO.C,SW46*%
X252929553Y-177543078D03*
X257729553Y-185856922D03*
D16*
X255929554Y-182739230D03*
D24*
X262975447Y-171743078D03*
D17*
X263745447Y-173076757D03*
X267005447Y-178723243D03*
D24*
X267775447Y-180056922D03*
D25*
X260939583Y-181116858D03*
X263061346Y-179891858D03*
%TD*%
D19*
%TO.C,SW25*%
X372610000Y-104250000D03*
D16*
X372610000Y-110250000D03*
D19*
X372610000Y-113850000D03*
X384210000Y-104250000D03*
D17*
X384210000Y-105790000D03*
X384210000Y-112310000D03*
D19*
X384210000Y-113850000D03*
D20*
X377760000Y-111350000D03*
X380210000Y-111350000D03*
%TD*%
D13*
%TO.C,D34*%
X290210000Y-86625001D03*
X290210000Y-89775001D03*
%TD*%
D19*
%TO.C,SW8*%
X33200000Y-123300000D03*
D16*
X33200000Y-129300000D03*
D19*
X33200000Y-132900000D03*
X44800000Y-123300000D03*
D17*
X44800000Y-124840000D03*
X44800000Y-131360000D03*
D19*
X44800000Y-132900000D03*
D20*
X38350000Y-130400000D03*
X40800000Y-130400000D03*
%TD*%
D19*
%TO.C,SW34*%
X315460000Y-116950000D03*
D16*
X315460000Y-122950000D03*
D19*
X315460000Y-126550000D03*
X327060000Y-116950000D03*
D17*
X327060000Y-118490000D03*
X327060000Y-125010000D03*
D19*
X327060000Y-126550000D03*
D20*
X320610000Y-124050000D03*
X323060000Y-124050000D03*
%TD*%
D21*
%TO.C,D41*%
X314035000Y-152000000D03*
X317185000Y-152000000D03*
%TD*%
D26*
%TO.C,D23*%
X161136010Y-168312500D03*
X163863990Y-169887500D03*
%TD*%
D19*
%TO.C,SW31*%
X372610000Y-123300000D03*
D16*
X372610000Y-129300000D03*
D19*
X372610000Y-132900000D03*
X384210000Y-123300000D03*
D17*
X384210000Y-124840000D03*
X384210000Y-131360000D03*
D19*
X384210000Y-132900000D03*
D20*
X377760000Y-130400000D03*
X380210000Y-130400000D03*
%TD*%
D19*
%TO.C,SW21*%
X104900000Y-161400000D03*
D16*
X104900000Y-167400000D03*
D19*
X104900000Y-171000000D03*
X116500000Y-161400000D03*
D17*
X116500000Y-162940000D03*
X116500000Y-169460000D03*
D19*
X116500000Y-171000000D03*
D20*
X110050000Y-168500000D03*
X112500000Y-168500000D03*
%TD*%
D19*
%TO.C,SW36*%
X277360000Y-120918750D03*
D16*
X277360000Y-126918750D03*
D19*
X277360000Y-130518750D03*
X288960000Y-120918750D03*
D17*
X288960000Y-122458750D03*
X288960000Y-128978750D03*
D19*
X288960000Y-130518750D03*
D20*
X282510000Y-128018750D03*
X284960000Y-128018750D03*
%TD*%
D14*
%TO.C,D20*%
X92175000Y-155400000D03*
X89025000Y-155400000D03*
%TD*%
D19*
%TO.C,SW32*%
X353560000Y-123300000D03*
D16*
X353560000Y-129300000D03*
D19*
X353560000Y-132900000D03*
X365160000Y-123300000D03*
D17*
X365160000Y-124840000D03*
X365160000Y-131360000D03*
D19*
X365160000Y-132900000D03*
D20*
X358710000Y-130400000D03*
X361160000Y-130400000D03*
%TD*%
D19*
%TO.C,SW19*%
X128450000Y-139968750D03*
D16*
X128450000Y-145968750D03*
D19*
X128450000Y-149568750D03*
X140050000Y-139968750D03*
D17*
X140050000Y-141508750D03*
X140050000Y-148028750D03*
D19*
X140050000Y-149568750D03*
D20*
X133600000Y-147068750D03*
X136050000Y-147068750D03*
%TD*%
D19*
%TO.C,SW37*%
X372610000Y-142350000D03*
D16*
X372610000Y-148350000D03*
D19*
X372610000Y-151950000D03*
X384210000Y-142350000D03*
D17*
X384210000Y-143890000D03*
X384210000Y-150410000D03*
D19*
X384210000Y-151950000D03*
D20*
X377760000Y-149450000D03*
X380210000Y-149450000D03*
%TD*%
D19*
%TO.C,SW3*%
X52250000Y-104250000D03*
D16*
X52250000Y-110250000D03*
D19*
X52250000Y-113850000D03*
X63850000Y-104250000D03*
D17*
X63850000Y-105790000D03*
X63850000Y-112310000D03*
D19*
X63850000Y-113850000D03*
D20*
X57400000Y-111350000D03*
X59850000Y-111350000D03*
%TD*%
D19*
%TO.C,SW17*%
X90350000Y-136000000D03*
D16*
X90350000Y-142000000D03*
D19*
X90350000Y-145600000D03*
X101950000Y-136000000D03*
D17*
X101950000Y-137540000D03*
X101950000Y-144060000D03*
D19*
X101950000Y-145600000D03*
D20*
X95500000Y-143100000D03*
X97950000Y-143100000D03*
%TD*%
D21*
%TO.C,D19*%
X127025000Y-155400000D03*
X130175000Y-155400000D03*
%TD*%
D19*
%TO.C,SW12*%
X109400000Y-120918750D03*
D16*
X109400000Y-126918750D03*
D19*
X109400000Y-130518750D03*
X121000000Y-120918750D03*
D17*
X121000000Y-122458750D03*
X121000000Y-128978750D03*
D19*
X121000000Y-130518750D03*
D20*
X114550000Y-128018750D03*
X117000000Y-128018750D03*
%TD*%
D14*
%TO.C,D17*%
X92175000Y-152000000D03*
X89025000Y-152000000D03*
%TD*%
D19*
%TO.C,SW14*%
X33200000Y-142350000D03*
D16*
X33200000Y-148350000D03*
D19*
X33200000Y-151950000D03*
X44800000Y-142350000D03*
D17*
X44800000Y-143890000D03*
X44800000Y-150410000D03*
D19*
X44800000Y-151950000D03*
D20*
X38350000Y-149450000D03*
X40800000Y-149450000D03*
%TD*%
D13*
%TO.C,D26*%
X308210000Y-85025000D03*
X308210000Y-88175000D03*
%TD*%
D21*
%TO.C,D22*%
X113025000Y-155400000D03*
X116175000Y-155400000D03*
%TD*%
D13*
%TO.C,D32*%
X304610000Y-86625001D03*
X304610000Y-89775001D03*
%TD*%
%TO.C,D27*%
X301010000Y-85025000D03*
X301010000Y-88175000D03*
%TD*%
%TO.C,D7*%
X138000000Y-85025000D03*
X138000000Y-88175000D03*
%TD*%
D19*
%TO.C,SW15*%
X52250000Y-142350000D03*
D16*
X52250000Y-148350000D03*
D19*
X52250000Y-151950000D03*
X63850000Y-142350000D03*
D17*
X63850000Y-143890000D03*
X63850000Y-150410000D03*
D19*
X63850000Y-151950000D03*
D20*
X57400000Y-149450000D03*
X59850000Y-149450000D03*
%TD*%
D14*
%TO.C,D21*%
X103375000Y-155400000D03*
X100225000Y-155400000D03*
%TD*%
D19*
%TO.C,SW27*%
X334510000Y-101868750D03*
D16*
X334510000Y-107868750D03*
D19*
X334510000Y-111468750D03*
X346110000Y-101868750D03*
D17*
X346110000Y-103408750D03*
X346110000Y-109928750D03*
D19*
X346110000Y-111468750D03*
D20*
X339660000Y-108968750D03*
X342110000Y-108968750D03*
%TD*%
D27*
%TO.C,SW22*%
X127439720Y-162599004D03*
D16*
X126192250Y-168467889D03*
D27*
X125443768Y-171989221D03*
X138786232Y-165010779D03*
D17*
X138466048Y-166517127D03*
X137110464Y-172894649D03*
D27*
X136790280Y-174400996D03*
D28*
X131001007Y-170614597D03*
X133397469Y-171123981D03*
%TD*%
D21*
%TO.C,D16*%
X64425000Y-158400000D03*
X67575000Y-158400000D03*
%TD*%
D19*
%TO.C,SW26*%
X353560000Y-104250000D03*
D16*
X353560000Y-110250000D03*
D19*
X353560000Y-113850000D03*
X365160000Y-104250000D03*
D17*
X365160000Y-105790000D03*
X365160000Y-112310000D03*
D19*
X365160000Y-113850000D03*
D20*
X358710000Y-111350000D03*
X361160000Y-111350000D03*
%TD*%
D19*
%TO.C,SW24*%
X368607500Y-85200000D03*
D16*
X368607500Y-91200000D03*
D19*
X368607500Y-94800000D03*
X380207500Y-85200000D03*
D17*
X380207500Y-86740000D03*
X380207500Y-93260000D03*
D19*
X380207500Y-94800000D03*
D20*
X373757500Y-92300000D03*
X376207500Y-92300000D03*
%TD*%
D21*
%TO.C,D44*%
X314035000Y-155400000D03*
X317185000Y-155400000D03*
%TD*%
D29*
%TO.C,MH1*%
X35500000Y-158500000D03*
D30*
X36030133Y-159956523D03*
%TD*%
D19*
%TO.C,SW38*%
X353560000Y-142350000D03*
D16*
X353560000Y-148350000D03*
D19*
X353560000Y-151950000D03*
X365160000Y-142350000D03*
D17*
X365160000Y-143890000D03*
X365160000Y-150410000D03*
D19*
X365160000Y-151950000D03*
D20*
X358710000Y-149450000D03*
X361160000Y-149450000D03*
%TD*%
D31*
%TO.C,U1*%
X34530000Y-182398000D03*
X37070000Y-182398000D03*
X39610000Y-182398000D03*
X42150000Y-182398000D03*
X44690000Y-182398000D03*
X47230000Y-182398000D03*
X49770000Y-182398000D03*
X52310000Y-182398000D03*
X54850000Y-182398000D03*
X57390000Y-182398000D03*
X59930000Y-182398000D03*
X62470000Y-182398000D03*
X62470000Y-163602000D03*
X59930000Y-163602000D03*
X57390000Y-163602000D03*
X54850000Y-163602000D03*
X52310000Y-163602000D03*
X49770000Y-163602000D03*
X47230000Y-163602000D03*
X44690000Y-163602000D03*
X42150000Y-163602000D03*
X39610000Y-163602000D03*
X37070000Y-163602000D03*
X34530000Y-163602000D03*
D32*
X64375000Y-178080000D03*
X64375000Y-175540000D03*
X64375000Y-173000000D03*
X64375000Y-170460000D03*
X64375000Y-167920000D03*
%TD*%
D21*
%TO.C,D37*%
X365835000Y-158400000D03*
X368985000Y-158400000D03*
%TD*%
D13*
%TO.C,D1*%
X98400000Y-83425000D03*
X98400000Y-86575000D03*
%TD*%
D14*
%TO.C,D38*%
X360985000Y-158400000D03*
X357835000Y-158400000D03*
%TD*%
D19*
%TO.C,SW43*%
X319960000Y-161400000D03*
D16*
X319960000Y-167400000D03*
D19*
X319960000Y-171000000D03*
X331560000Y-161400000D03*
D17*
X331560000Y-162940000D03*
X331560000Y-169460000D03*
D19*
X331560000Y-171000000D03*
D20*
X325110000Y-168500000D03*
X327560000Y-168500000D03*
%TD*%
D33*
%TO.C,D46*%
X256273990Y-168312500D03*
X253546010Y-169887500D03*
%TD*%
D19*
%TO.C,SW40*%
X315460000Y-136000000D03*
D16*
X315460000Y-142000000D03*
D19*
X315460000Y-145600000D03*
X327060000Y-136000000D03*
D17*
X327060000Y-137540000D03*
X327060000Y-144060000D03*
D19*
X327060000Y-145600000D03*
D20*
X320610000Y-143100000D03*
X323060000Y-143100000D03*
%TD*%
D19*
%TO.C,SW20*%
X85850000Y-161400000D03*
D16*
X85850000Y-167400000D03*
D19*
X85850000Y-171000000D03*
X97450000Y-161400000D03*
D17*
X97450000Y-162940000D03*
X97450000Y-169460000D03*
D19*
X97450000Y-171000000D03*
D20*
X91000000Y-168500000D03*
X93450000Y-168500000D03*
%TD*%
D13*
%TO.C,D36*%
X275810000Y-86625001D03*
X275810000Y-89775001D03*
%TD*%
%TO.C,D5*%
X123600000Y-85025000D03*
X123600000Y-88175000D03*
%TD*%
%TO.C,D10*%
X120000000Y-86625000D03*
X120000000Y-89775000D03*
%TD*%
%LPD*%
M02*
