%TF.GenerationSoftware,KiCad,Pcbnew,8.0.5*%
%TF.CreationDate,2024-10-06T00:46:39+09:00*%
%TF.ProjectId,monolith,6d6f6e6f-6c69-4746-982e-6b696361645f,rev?*%
%TF.SameCoordinates,Original*%
%TF.FileFunction,Paste,Top*%
%TF.FilePolarity,Positive*%
%FSLAX46Y46*%
G04 Gerber Fmt 4.6, Leading zero omitted, Abs format (unit mm)*
G04 Created by KiCad (PCBNEW 8.0.5) date 2024-10-06 00:46:39*
%MOMM*%
%LPD*%
G01*
G04 APERTURE LIST*
G04 Aperture macros list*
%AMRoundRect*
0 Rectangle with rounded corners*
0 $1 Rounding radius*
0 $2 $3 $4 $5 $6 $7 $8 $9 X,Y pos of 4 corners*
0 Add a 4 corners polygon primitive as box body*
4,1,4,$2,$3,$4,$5,$6,$7,$8,$9,$2,$3,0*
0 Add four circle primitives for the rounded corners*
1,1,$1+$1,$2,$3*
1,1,$1+$1,$4,$5*
1,1,$1+$1,$6,$7*
1,1,$1+$1,$8,$9*
0 Add four rect primitives between the rounded corners*
20,1,$1+$1,$2,$3,$4,$5,0*
20,1,$1+$1,$4,$5,$6,$7,0*
20,1,$1+$1,$6,$7,$8,$9,0*
20,1,$1+$1,$8,$9,$2,$3,0*%
%AMRotRect*
0 Rectangle, with rotation*
0 The origin of the aperture is its center*
0 $1 length*
0 $2 width*
0 $3 Rotation angle, in degrees counterclockwise*
0 Add horizontal line*
21,1,$1,$2,0,0,$3*%
G04 Aperture macros list end*
%ADD10C,0.350001*%
%ADD11C,0.349999*%
%ADD12C,0.350000*%
%ADD13RoundRect,0.225000X-0.250000X0.225000X-0.250000X-0.225000X0.250000X-0.225000X0.250000X0.225000X0*%
%ADD14RoundRect,0.225000X0.225000X0.250000X-0.225000X0.250000X-0.225000X-0.250000X0.225000X-0.250000X0*%
%ADD15RotRect,1.200000X1.200000X12.000000*%
%ADD16RotRect,0.700000X3.400000X12.000000*%
%ADD17R,1.200000X1.200000*%
%ADD18R,0.700000X3.400000*%
%ADD19RoundRect,0.225000X-0.225000X-0.250000X0.225000X-0.250000X0.225000X0.250000X-0.225000X0.250000X0*%
%ADD20RotRect,1.200000X1.200000X330.000000*%
%ADD21RotRect,0.700000X3.400000X330.000000*%
%ADD22RotRect,1.200000X1.200000X30.000000*%
%ADD23RotRect,0.700000X3.400000X30.000000*%
%ADD24RoundRect,0.225000X-0.319856X-0.104006X0.069856X-0.329006X0.319856X0.104006X-0.069856X0.329006X0*%
%ADD25RotRect,1.200000X1.200000X348.000000*%
%ADD26RotRect,0.700000X3.400000X348.000000*%
%ADD27R,2.000000X3.250000*%
%ADD28R,3.250000X2.000000*%
%ADD29RoundRect,0.225000X0.069856X0.329006X-0.319856X0.104006X-0.069856X-0.329006X0.319856X-0.104006X0*%
G04 APERTURE END LIST*
%TO.C,MH1*%
D10*
X34265460Y-159013031D02*
G75*
G02*
X33915460Y-159013031I-175000J0D01*
G01*
X33915460Y-159013031D02*
G75*
G02*
X34265460Y-159013031I175000J0D01*
G01*
D11*
X34525933Y-157535820D02*
G75*
G02*
X34175935Y-157535820I-174999J0D01*
G01*
X34175935Y-157535820D02*
G75*
G02*
X34525933Y-157535820I174999J0D01*
G01*
X35414526Y-159977213D02*
G75*
G02*
X35064528Y-159977213I-174999J0D01*
G01*
X35064528Y-159977213D02*
G75*
G02*
X35414526Y-159977213I174999J0D01*
G01*
D12*
X35935473Y-157022787D02*
G75*
G02*
X35585473Y-157022787I-175000J0D01*
G01*
X35585473Y-157022787D02*
G75*
G02*
X35935473Y-157022787I175000J0D01*
G01*
D10*
X36824066Y-159464180D02*
G75*
G02*
X36474066Y-159464180I-175000J0D01*
G01*
X36474066Y-159464180D02*
G75*
G02*
X36824066Y-159464180I175000J0D01*
G01*
D12*
X37084540Y-157986969D02*
G75*
G02*
X36734540Y-157986969I-175000J0D01*
G01*
X36734540Y-157986969D02*
G75*
G02*
X37084540Y-157986969I175000J0D01*
G01*
%TD*%
D13*
%TO.C,D30*%
X279410000Y-85025000D03*
X279410000Y-88175000D03*
%TD*%
%TO.C,D3*%
X109200000Y-85025000D03*
X109200000Y-88175000D03*
%TD*%
%TO.C,D31*%
X311810000Y-86625001D03*
X311810000Y-89775001D03*
%TD*%
%TO.C,D4*%
X116400000Y-85025000D03*
X116400000Y-88175000D03*
%TD*%
D14*
%TO.C,D39*%
X352985000Y-158400000D03*
X349835000Y-158400000D03*
%TD*%
D13*
%TO.C,D28*%
X293810000Y-85025000D03*
X293810000Y-88175000D03*
%TD*%
D15*
%TO.C,SW45*%
X278623768Y-165010779D03*
X280619720Y-174400996D03*
X289970280Y-162599004D03*
X291966232Y-171989221D03*
D16*
X285137401Y-170884882D03*
X287533864Y-170375498D03*
%TD*%
D17*
%TO.C,SW42*%
X277360000Y-139968750D03*
X277360000Y-149568750D03*
X288960000Y-139968750D03*
X288960000Y-149568750D03*
D18*
X282510000Y-147068750D03*
X284960000Y-147068750D03*
%TD*%
D17*
%TO.C,SW4*%
X71300000Y-101868750D03*
X71300000Y-111468750D03*
X82900000Y-101868750D03*
X82900000Y-111468750D03*
D18*
X76450000Y-108968750D03*
X78900000Y-108968750D03*
%TD*%
D13*
%TO.C,D24*%
X319010000Y-83425000D03*
X319010000Y-86575000D03*
%TD*%
D19*
%TO.C,D15*%
X56425000Y-158400000D03*
X59575000Y-158400000D03*
%TD*%
D17*
%TO.C,SW9*%
X52250000Y-123300000D03*
X52250000Y-132900000D03*
X63850000Y-123300000D03*
X63850000Y-132900000D03*
D18*
X57400000Y-130400000D03*
X59850000Y-130400000D03*
%TD*%
D19*
%TO.C,D40*%
X325235000Y-152000000D03*
X328385000Y-152000000D03*
%TD*%
D13*
%TO.C,D29*%
X286610000Y-85025000D03*
X286610000Y-88175000D03*
%TD*%
D17*
%TO.C,SW41*%
X296410000Y-139968750D03*
X296410000Y-149568750D03*
X308010000Y-139968750D03*
X308010000Y-149568750D03*
D18*
X301560000Y-147068750D03*
X304010000Y-147068750D03*
%TD*%
D14*
%TO.C,D42*%
X290385000Y-155400000D03*
X287235000Y-155400000D03*
%TD*%
D17*
%TO.C,SW2*%
X33200000Y-104250000D03*
X33200000Y-113850000D03*
X44800000Y-104250000D03*
X44800000Y-113850000D03*
D18*
X38350000Y-111350000D03*
X40800000Y-111350000D03*
%TD*%
D17*
%TO.C,SW5*%
X90350000Y-97900000D03*
X90350000Y-107500000D03*
X101950000Y-97900000D03*
X101950000Y-107500000D03*
D18*
X95500000Y-105000000D03*
X97950000Y-105000000D03*
%TD*%
D13*
%TO.C,D35*%
X283010000Y-86625001D03*
X283010000Y-89775001D03*
%TD*%
%TO.C,D11*%
X127200000Y-86625000D03*
X127200000Y-89775000D03*
%TD*%
D17*
%TO.C,SW1*%
X37202500Y-85200000D03*
X37202500Y-94800000D03*
X48802500Y-85200000D03*
X48802500Y-94800000D03*
D18*
X42352500Y-92300000D03*
X44802500Y-92300000D03*
%TD*%
D14*
%TO.C,D18*%
X103375000Y-152000000D03*
X100225000Y-152000000D03*
%TD*%
D13*
%TO.C,D12*%
X134400000Y-86625000D03*
X134400000Y-89775000D03*
%TD*%
D17*
%TO.C,SW33*%
X334510000Y-120918750D03*
X334510000Y-130518750D03*
X346110000Y-120918750D03*
X346110000Y-130518750D03*
D18*
X339660000Y-128018750D03*
X342110000Y-128018750D03*
%TD*%
D17*
%TO.C,SW13*%
X128450000Y-120918750D03*
X128450000Y-130518750D03*
X140050000Y-120918750D03*
X140050000Y-130518750D03*
D18*
X133600000Y-128018750D03*
X136050000Y-128018750D03*
%TD*%
D13*
%TO.C,D8*%
X105600000Y-86625000D03*
X105600000Y-89775000D03*
%TD*%
%TO.C,D13*%
X141600000Y-86625000D03*
X141600000Y-89775000D03*
%TD*%
D17*
%TO.C,SW30*%
X277360000Y-101868750D03*
X277360000Y-111468750D03*
X288960000Y-101868750D03*
X288960000Y-111468750D03*
D18*
X282510000Y-108968750D03*
X284960000Y-108968750D03*
%TD*%
D14*
%TO.C,D14*%
X51575000Y-158400000D03*
X48425000Y-158400000D03*
%TD*%
D13*
%TO.C,D25*%
X315410000Y-85025000D03*
X315410000Y-88175000D03*
%TD*%
D19*
%TO.C,D43*%
X325235000Y-155400000D03*
X328385000Y-155400000D03*
%TD*%
D17*
%TO.C,SW6*%
X109400000Y-101868750D03*
X109400000Y-111468750D03*
X121000000Y-101868750D03*
X121000000Y-111468750D03*
D18*
X114550000Y-108968750D03*
X117000000Y-108968750D03*
%TD*%
D17*
%TO.C,SW28*%
X315460000Y-97900000D03*
X315460000Y-107500000D03*
X327060000Y-97900000D03*
X327060000Y-107500000D03*
D18*
X320610000Y-105000000D03*
X323060000Y-105000000D03*
%TD*%
D17*
%TO.C,SW11*%
X90350000Y-116950000D03*
X90350000Y-126550000D03*
X101950000Y-116950000D03*
X101950000Y-126550000D03*
D18*
X95500000Y-124050000D03*
X97950000Y-124050000D03*
%TD*%
D17*
%TO.C,SW39*%
X334510000Y-139968750D03*
X334510000Y-149568750D03*
X346110000Y-139968750D03*
X346110000Y-149568750D03*
D18*
X339660000Y-147068750D03*
X342110000Y-147068750D03*
%TD*%
D20*
%TO.C,SW23*%
X154434553Y-171743078D03*
X149634553Y-180056922D03*
X164480447Y-177543078D03*
X159680447Y-185856922D03*
D21*
X155344583Y-180466858D03*
X157466346Y-181691858D03*
%TD*%
D17*
%TO.C,SW7*%
X128450000Y-101868750D03*
X128450000Y-111468750D03*
X140050000Y-101868750D03*
X140050000Y-111468750D03*
D18*
X133600000Y-108968750D03*
X136050000Y-108968750D03*
%TD*%
D14*
%TO.C,D45*%
X304385000Y-155400000D03*
X301235000Y-155400000D03*
%TD*%
D13*
%TO.C,D33*%
X297410000Y-86625001D03*
X297410000Y-89775001D03*
%TD*%
D17*
%TO.C,SW44*%
X300910000Y-161400000D03*
X300910000Y-171000000D03*
X312510000Y-161400000D03*
X312510000Y-171000000D03*
D18*
X306060000Y-168500000D03*
X308510000Y-168500000D03*
%TD*%
D17*
%TO.C,SW35*%
X296410000Y-120918750D03*
X296410000Y-130518750D03*
X308010000Y-120918750D03*
X308010000Y-130518750D03*
D18*
X301560000Y-128018750D03*
X304010000Y-128018750D03*
%TD*%
D13*
%TO.C,D6*%
X130800000Y-85025000D03*
X130800000Y-88175000D03*
%TD*%
D17*
%TO.C,SW10*%
X71300000Y-120918750D03*
X71300000Y-130518750D03*
X82900000Y-120918750D03*
X82900000Y-130518750D03*
D18*
X76450000Y-128018750D03*
X78900000Y-128018750D03*
%TD*%
D17*
%TO.C,SW29*%
X296410000Y-101868750D03*
X296410000Y-111468750D03*
X308010000Y-101868750D03*
X308010000Y-111468750D03*
D18*
X301560000Y-108968750D03*
X304010000Y-108968750D03*
%TD*%
D17*
%TO.C,SW18*%
X109400000Y-139968750D03*
X109400000Y-149568750D03*
X121000000Y-139968750D03*
X121000000Y-149568750D03*
D18*
X114550000Y-147068750D03*
X117000000Y-147068750D03*
%TD*%
D17*
%TO.C,SW16*%
X71300000Y-139968750D03*
X71300000Y-149568750D03*
X82900000Y-139968750D03*
X82900000Y-149568750D03*
D18*
X76450000Y-147068750D03*
X78900000Y-147068750D03*
%TD*%
D13*
%TO.C,D9*%
X112800000Y-86625000D03*
X112800000Y-89775000D03*
%TD*%
%TO.C,D2*%
X102000000Y-85025000D03*
X102000000Y-88175000D03*
%TD*%
D22*
%TO.C,SW46*%
X252929553Y-177543078D03*
X257729553Y-185856922D03*
X262975447Y-171743078D03*
X267775447Y-180056922D03*
D23*
X260939583Y-181116858D03*
X263061346Y-179891858D03*
%TD*%
D17*
%TO.C,SW25*%
X372610000Y-104250000D03*
X372610000Y-113850000D03*
X384210000Y-104250000D03*
X384210000Y-113850000D03*
D18*
X377760000Y-111350000D03*
X380210000Y-111350000D03*
%TD*%
D13*
%TO.C,D34*%
X290210000Y-86625001D03*
X290210000Y-89775001D03*
%TD*%
D17*
%TO.C,SW8*%
X33200000Y-123300000D03*
X33200000Y-132900000D03*
X44800000Y-123300000D03*
X44800000Y-132900000D03*
D18*
X38350000Y-130400000D03*
X40800000Y-130400000D03*
%TD*%
D17*
%TO.C,SW34*%
X315460000Y-116950000D03*
X315460000Y-126550000D03*
X327060000Y-116950000D03*
X327060000Y-126550000D03*
D18*
X320610000Y-124050000D03*
X323060000Y-124050000D03*
%TD*%
D19*
%TO.C,D41*%
X314035000Y-152000000D03*
X317185000Y-152000000D03*
%TD*%
D24*
%TO.C,D23*%
X161136010Y-168312500D03*
X163863990Y-169887500D03*
%TD*%
D17*
%TO.C,SW31*%
X372610000Y-123300000D03*
X372610000Y-132900000D03*
X384210000Y-123300000D03*
X384210000Y-132900000D03*
D18*
X377760000Y-130400000D03*
X380210000Y-130400000D03*
%TD*%
D17*
%TO.C,SW21*%
X104900000Y-161400000D03*
X104900000Y-171000000D03*
X116500000Y-161400000D03*
X116500000Y-171000000D03*
D18*
X110050000Y-168500000D03*
X112500000Y-168500000D03*
%TD*%
D17*
%TO.C,SW36*%
X277360000Y-120918750D03*
X277360000Y-130518750D03*
X288960000Y-120918750D03*
X288960000Y-130518750D03*
D18*
X282510000Y-128018750D03*
X284960000Y-128018750D03*
%TD*%
D14*
%TO.C,D20*%
X92175000Y-155400000D03*
X89025000Y-155400000D03*
%TD*%
D17*
%TO.C,SW32*%
X353560000Y-123300000D03*
X353560000Y-132900000D03*
X365160000Y-123300000D03*
X365160000Y-132900000D03*
D18*
X358710000Y-130400000D03*
X361160000Y-130400000D03*
%TD*%
D17*
%TO.C,SW19*%
X128450000Y-139968750D03*
X128450000Y-149568750D03*
X140050000Y-139968750D03*
X140050000Y-149568750D03*
D18*
X133600000Y-147068750D03*
X136050000Y-147068750D03*
%TD*%
D17*
%TO.C,SW37*%
X372610000Y-142350000D03*
X372610000Y-151950000D03*
X384210000Y-142350000D03*
X384210000Y-151950000D03*
D18*
X377760000Y-149450000D03*
X380210000Y-149450000D03*
%TD*%
D17*
%TO.C,SW3*%
X52250000Y-104250000D03*
X52250000Y-113850000D03*
X63850000Y-104250000D03*
X63850000Y-113850000D03*
D18*
X57400000Y-111350000D03*
X59850000Y-111350000D03*
%TD*%
D17*
%TO.C,SW17*%
X90350000Y-136000000D03*
X90350000Y-145600000D03*
X101950000Y-136000000D03*
X101950000Y-145600000D03*
D18*
X95500000Y-143100000D03*
X97950000Y-143100000D03*
%TD*%
D19*
%TO.C,D19*%
X127025000Y-155400000D03*
X130175000Y-155400000D03*
%TD*%
D17*
%TO.C,SW12*%
X109400000Y-120918750D03*
X109400000Y-130518750D03*
X121000000Y-120918750D03*
X121000000Y-130518750D03*
D18*
X114550000Y-128018750D03*
X117000000Y-128018750D03*
%TD*%
D14*
%TO.C,D17*%
X92175000Y-152000000D03*
X89025000Y-152000000D03*
%TD*%
D17*
%TO.C,SW14*%
X33200000Y-142350000D03*
X33200000Y-151950000D03*
X44800000Y-142350000D03*
X44800000Y-151950000D03*
D18*
X38350000Y-149450000D03*
X40800000Y-149450000D03*
%TD*%
D13*
%TO.C,D26*%
X308210000Y-85025000D03*
X308210000Y-88175000D03*
%TD*%
D19*
%TO.C,D22*%
X113025000Y-155400000D03*
X116175000Y-155400000D03*
%TD*%
D13*
%TO.C,D32*%
X304610000Y-86625001D03*
X304610000Y-89775001D03*
%TD*%
%TO.C,D27*%
X301010000Y-85025000D03*
X301010000Y-88175000D03*
%TD*%
%TO.C,D7*%
X138000000Y-85025000D03*
X138000000Y-88175000D03*
%TD*%
D17*
%TO.C,SW15*%
X52250000Y-142350000D03*
X52250000Y-151950000D03*
X63850000Y-142350000D03*
X63850000Y-151950000D03*
D18*
X57400000Y-149450000D03*
X59850000Y-149450000D03*
%TD*%
D14*
%TO.C,D21*%
X103375000Y-155400000D03*
X100225000Y-155400000D03*
%TD*%
D17*
%TO.C,SW27*%
X334510000Y-101868750D03*
X334510000Y-111468750D03*
X346110000Y-101868750D03*
X346110000Y-111468750D03*
D18*
X339660000Y-108968750D03*
X342110000Y-108968750D03*
%TD*%
D25*
%TO.C,SW22*%
X127439720Y-162599004D03*
X125443768Y-171989221D03*
X138786232Y-165010779D03*
X136790280Y-174400996D03*
D26*
X131001007Y-170614597D03*
X133397469Y-171123981D03*
%TD*%
D19*
%TO.C,D16*%
X64425000Y-158400000D03*
X67575000Y-158400000D03*
%TD*%
D17*
%TO.C,SW26*%
X353560000Y-104250000D03*
X353560000Y-113850000D03*
X365160000Y-104250000D03*
X365160000Y-113850000D03*
D18*
X358710000Y-111350000D03*
X361160000Y-111350000D03*
%TD*%
D17*
%TO.C,SW24*%
X368607500Y-85200000D03*
X368607500Y-94800000D03*
X380207500Y-85200000D03*
X380207500Y-94800000D03*
D18*
X373757500Y-92300000D03*
X376207500Y-92300000D03*
%TD*%
D19*
%TO.C,D44*%
X314035000Y-155400000D03*
X317185000Y-155400000D03*
%TD*%
D17*
%TO.C,SW38*%
X353560000Y-142350000D03*
X353560000Y-151950000D03*
X365160000Y-142350000D03*
X365160000Y-151950000D03*
D18*
X358710000Y-149450000D03*
X361160000Y-149450000D03*
%TD*%
D27*
%TO.C,U1*%
X34530000Y-182398000D03*
X37070000Y-182398000D03*
X39610000Y-182398000D03*
X42150000Y-182398000D03*
X44690000Y-182398000D03*
X47230000Y-182398000D03*
X49770000Y-182398000D03*
X52310000Y-182398000D03*
X54850000Y-182398000D03*
X57390000Y-182398000D03*
X59930000Y-182398000D03*
X62470000Y-182398000D03*
X62470000Y-163602000D03*
X59930000Y-163602000D03*
X57390000Y-163602000D03*
X54850000Y-163602000D03*
X52310000Y-163602000D03*
X49770000Y-163602000D03*
X47230000Y-163602000D03*
X44690000Y-163602000D03*
X42150000Y-163602000D03*
X39610000Y-163602000D03*
X37070000Y-163602000D03*
X34530000Y-163602000D03*
D28*
X64375000Y-178080000D03*
X64375000Y-175540000D03*
X64375000Y-173000000D03*
X64375000Y-170460000D03*
X64375000Y-167920000D03*
%TD*%
D19*
%TO.C,D37*%
X365835000Y-158400000D03*
X368985000Y-158400000D03*
%TD*%
D13*
%TO.C,D1*%
X98400000Y-83425000D03*
X98400000Y-86575000D03*
%TD*%
D14*
%TO.C,D38*%
X360985000Y-158400000D03*
X357835000Y-158400000D03*
%TD*%
D17*
%TO.C,SW43*%
X319960000Y-161400000D03*
X319960000Y-171000000D03*
X331560000Y-161400000D03*
X331560000Y-171000000D03*
D18*
X325110000Y-168500000D03*
X327560000Y-168500000D03*
%TD*%
D29*
%TO.C,D46*%
X256273990Y-168312500D03*
X253546010Y-169887500D03*
%TD*%
D17*
%TO.C,SW40*%
X315460000Y-136000000D03*
X315460000Y-145600000D03*
X327060000Y-136000000D03*
X327060000Y-145600000D03*
D18*
X320610000Y-143100000D03*
X323060000Y-143100000D03*
%TD*%
D17*
%TO.C,SW20*%
X85850000Y-161400000D03*
X85850000Y-171000000D03*
X97450000Y-161400000D03*
X97450000Y-171000000D03*
D18*
X91000000Y-168500000D03*
X93450000Y-168500000D03*
%TD*%
D13*
%TO.C,D36*%
X275810000Y-86625001D03*
X275810000Y-89775001D03*
%TD*%
%TO.C,D5*%
X123600000Y-85025000D03*
X123600000Y-88175000D03*
%TD*%
%TO.C,D10*%
X120000000Y-86625000D03*
X120000000Y-89775000D03*
%TD*%
M02*
